<svg width="1240" height="235" viewBox="0 0 1240 235" fill="none" xmlns="http://www.w3.org/2000/svg">
<path d="M1163.03 91.8761C1163.17 94.1299 1146.17 102.751 1131.39 105.643C1116.6 108.535 1088.71 107.542 1087.26 105.643C1085.81 103.744 1085.17 74.3978 1084.11 66.8958C1083.04 59.3938 1076.61 38.3773 1089.52 31.7106C1089.52 31.7106 1093.69 21.5136 1101.39 16.9273C1109.09 12.341 1122 11.5136 1130.95 15.8871C1139.91 20.2606 1159.7 36.6988 1163.03 91.8761Z" fill="#443282"/>
<path d="M1062.5 109C1062.5 109 1017.32 171.332 932 185.5C846.684 199.668 766.5 196.972 585 172.5C482.424 158.669 358.5 97.9999 311 150.5C263.5 203 174.744 118.676 174.744 118.676" stroke="#939BF6" stroke-width="4" stroke-miterlimit="10"/>
<path d="M1100.75 95.3754L1090.43 102.003L1073.04 113.145L1069.35 115.509C1065.82 118.496 1050.21 100.025 1053.74 97.0381L1062.51 87.3769L1070.69 78.3856L1078.83 69.4258L1100.75 95.3754Z" fill="white"/>
<path d="M1155.53 53.5704C1151.53 51.5531 1147.12 50.4892 1143.1 48.464C1138.78 46.2891 1113.86 45.9975 1112.46 47.4711C1110.67 49.3466 1110.52 52.0732 1110.88 54.5003C1111.48 58.3064 1113.33 61.6791 1114.5 65.3041C1115.86 69.4727 1121.4 106.951 1124.05 106.683C1126.7 106.415 1129.17 106.076 1131.37 105.643C1146.16 102.751 1163.15 94.1299 1163.02 91.8762C1162.1 76.6437 1159.92 64.3663 1157.07 54.4766C1156.58 54.144 1156.06 53.8414 1155.53 53.5704Z" fill="url(#paint0_linear)"/>
<path opacity="0.44" d="M1100.75 95.3753L1069.35 115.517C1068.2 116.486 1065.8 115.202 1063.19 112.94C1064.26 113.429 1065.16 113.508 1065.73 113.027L1097.15 92.8851L1078.05 70.2847L1078.83 69.4336L1100.75 95.3753Z" fill="#BACEE2"/>
<path d="M1123.27 78.3535C1123.27 78.3535 1137.01 100.418 1138.46 105.414C1139.92 110.41 1138.12 117.849 1131.66 123.263C1125.21 128.677 1147.83 146.644 1150.23 149.346C1152.63 152.049 1176.57 140.394 1176.57 140.394C1176.57 140.394 1187.81 132.696 1187.81 123.326C1187.81 113.956 1175.11 98.1092 1172.4 98.1092C1169.7 98.1092 1167.27 101.332 1163.24 102.049C1158.66 102.877 1150.54 95.1778 1147.21 83.9248C1143.88 72.6719 1123.27 78.3535 1123.27 78.3535Z" fill="url(#paint1_linear)"/>
<path opacity="0.44" d="M1090.43 102.002L1073.04 113.145C1071.23 110.063 1068.8 106.431 1066.23 102.498C1063.47 98.2588 1062.29 92.1123 1062.51 87.3841L1070.69 78.3928C1073.38 78.2494 1076.04 78.9641 1078.3 80.4338C1083.51 83.7671 1088.78 88.2194 1090.38 101.048C1090.41 101.365 1090.43 101.683 1090.43 102.002Z" fill="#BACEE2"/>
<path d="M1106.61 153.72C1104.86 155.435 1103.48 157.489 1102.55 159.757C1102.55 159.757 1098.91 145.809 1096.2 141.017C1093.5 136.226 1086.83 121.869 1086.62 117.7C1086.41 113.531 1089.17 104.761 1088.71 101.049C1087.13 88.22 1081.84 83.7677 1076.63 80.4343C1071.42 77.101 1065.24 78.0703 1062.54 81.2223C1059.84 84.3744 1060.17 95.7929 1064.56 102.499C1069.83 110.592 1074.6 117.471 1074.4 120.789C1074.19 124.107 1073.69 152.601 1074.19 162.995C1075.03 180.135 1082.01 194.516 1091.17 199.702C1100.34 204.887 1106.15 199.079 1110.33 195.541C1114.52 192.003 1123.06 181.624 1126.39 177.251C1129.72 172.877 1106.61 153.72 1106.61 153.72Z" fill="#DDAA72"/>
<path d="M1214.04 94.3822C1214.04 94.3822 1233.41 93.8621 1245.48 93.8621C1256.73 93.8621 1248.82 118.953 1248.82 118.953C1248.82 118.953 1223.21 119.993 1217.38 118.953C1211.55 117.913 1214.04 94.3822 1214.04 94.3822Z" fill="#DDAA72"/>
<path d="M1126.39 177.242C1123.06 181.624 1114.49 191.994 1110.33 195.532C1106.17 199.071 1100.33 204.902 1091.17 199.701L1090.95 199.567C1098 201.537 1102.77 196.825 1106.34 193.799C1110.51 190.261 1119.08 179.882 1122.41 175.509C1125.19 171.844 1110.59 158.771 1105.75 154.634C1106.27 154.043 1106.61 153.72 1106.61 153.72C1106.61 153.72 1129.72 172.877 1126.39 177.242Z" fill="url(#paint2_linear)"/>
<path d="M1249.67 115.848C1249.2 117.739 1248.82 118.945 1248.82 118.945C1248.82 118.945 1223.21 119.993 1217.38 118.945C1211.55 117.897 1214.04 94.382 1214.04 94.382L1220.78 94.2244C1222.21 99.1416 1224.89 109.583 1223.83 115.808C1230.77 115.942 1243.24 115.887 1249.67 115.848Z" fill="url(#paint3_linear)"/>
<path d="M1191.77 236.588C1191.77 236.588 1183.89 204.729 1170.32 188.078C1170.32 188.078 1156.8 187.629 1151.49 181.175C1146.18 174.721 1144.5 164.343 1144.5 164.343C1144.5 164.343 1136.18 177.25 1128.68 179.126C1128.68 179.126 1115.77 172.254 1110.15 165.8C1104.53 159.346 1103.49 154.768 1103.49 154.768C1103.49 154.768 1105.15 145.469 1106.4 141.584C1107.64 137.699 1113.69 130.205 1117.64 128.33C1121.6 126.454 1131.83 120.245 1133.33 120.662C1134.82 121.08 1146.79 143.113 1150.23 143.515C1153.67 143.917 1164.29 138.519 1169.49 135.635C1174.69 132.751 1180.32 127.518 1181.77 124.398C1183.23 121.277 1168.44 98.9603 1168.44 98.1329C1168.44 97.3054 1177.39 93.7593 1178.23 93.5466C1179.06 93.3338 1181.38 89.7956 1191.76 87.1951C1202.14 84.5946 1215.66 91.9626 1218.42 93.9485C1221.17 95.9343 1223.2 118.74 1222.16 120.828L1213.49 122.073C1213.49 122.073 1221.58 130.394 1223.25 132.27C1224.91 134.145 1228.04 145.982 1219.65 154.76C1219.65 154.76 1228.8 176.62 1243.59 184.532C1258.37 192.443 1242.25 239.504 1242.25 239.504L1191.77 236.588Z" fill="#EFCF5E"/>
<path d="M1140.07 35.4853C1140.07 35.4853 1150.19 46.5176 1152.9 55.6587C1155.4 64.0432 1155.37 79.9061 1150.21 85.8478C1146.66 89.9376 1131.75 83.6177 1126.04 81.3245C1118.94 78.4798 1110.62 71.0802 1107.69 63.2473C1104.06 53.4916 1103.75 39.7406 1114.66 33.7201C1125.3 27.8493 1132.07 26.0842 1140.07 35.4853Z" fill="url(#paint4_linear)"/>
<path d="M1145.75 68.1409C1147.83 67.1401 1150.37 65.107 1149.42 62.9321C1148.81 61.5531 1139.27 56.6279 1138.46 53.7122C1137.81 51.3482 1135.31 46.4545 1133.05 42.6248C1131.8 40.4813 1125.64 30.9147 1123.15 29.6145C1121 30.5128 1114.41 32.215 1107.98 37.1559C1100.22 43.1054 1101.89 56.2733 1106.14 66.3127C1111.37 78.6531 1118.41 82.3805 1120.32 83.3104C1126.94 86.5728 1143.5 91.0803 1150.27 85.8793C1150.45 85.635 1148.36 75.4617 1145.75 68.1409Z" fill="#DDAA72"/>
<path d="M1105.4 37.1241C1105.4 37.1241 1109.7 42.8688 1121.36 42.7506C1133.03 42.6324 1134.69 39.5985 1141.35 43.1603C1148.01 46.7222 1148.95 51.4897 1154.48 53.4046C1154.48 53.4046 1150.1 42.9555 1147.18 37.1635C1143.02 28.9129 1133.46 22.1911 1123.24 22.1911C1115.25 22.0807 1106.75 23.5937 1105.4 37.1241Z" fill="#443282"/>
<path d="M1107.98 37.1559C1110.34 39.386 1113.27 46.2891 1113.9 52.5302C1114.53 58.7713 1118.06 86.2497 1119.72 91.8762C1121.39 97.5026 1111.21 97.0929 1107.98 90.0085C1104.74 82.9242 1094.28 61.5924 1096.99 48.0542C1099.7 34.516 1103.43 32.8375 1107.98 37.1559Z" fill="#443282"/>
<path d="M1100.72 95.3248C1102.21 94.0632 1098.51 87.2315 1092.45 80.0657C1086.4 72.8999 1080.28 68.1136 1078.78 69.3752C1077.29 70.6367 1080.99 77.4684 1087.05 84.6342C1093.11 91.8 1099.23 96.5863 1100.72 95.3248Z" fill="url(#paint5_linear)"/>
<path opacity="0.52" d="M1143.74 158.062C1143.74 158.062 1144.67 164.611 1146.6 172.05C1145.69 169.541 1144.99 166.96 1144.51 164.335C1144.51 164.335 1136.17 177.243 1128.68 179.118C1128.68 179.118 1127.49 178.496 1125.69 177.424C1133.25 173.035 1143.74 158.062 1143.74 158.062Z" fill="#EFA144"/>
<path opacity="0.52" d="M1175.42 181.482C1174.63 182.72 1172.74 184.973 1170.23 188.062C1169.14 188.023 1158.49 187.432 1152.89 182.546C1160.99 184.036 1178.08 177.448 1175.42 181.482Z" fill="#EFA144"/>
<path opacity="0.52" d="M1222.17 120.82L1213.72 122.034C1209.89 120.568 1206.63 119.41 1206.63 119.41L1222.39 116.195C1222.63 117.735 1222.56 119.31 1222.17 120.82Z" fill="#EFA144"/>
<path opacity="0.52" d="M1225.12 138.33C1225.47 141.301 1225.17 144.313 1224.22 147.152C1223.28 149.992 1221.73 152.589 1219.67 154.761C1219.67 154.761 1219.9 155.32 1220.35 156.274C1218.68 153.634 1217.75 151.916 1217.75 151.916C1220.89 149.465 1223.66 143.697 1225.12 138.33Z" fill="#EFA144"/>
<path d="M1093.77 145.462C1091.4 140.474 1082.85 120.127 1082.64 115.958C1082.43 111.79 1085.19 103.027 1084.73 99.3073C1083.15 86.5492 1077.9 82.0733 1072.73 78.7478C1074.13 79.0859 1075.46 79.6559 1076.67 80.4342C1081.87 83.7675 1087.15 88.2198 1088.75 101.049C1089.21 104.768 1086.45 113.539 1086.67 117.7C1086.88 121.861 1093.57 136.21 1096.24 141.025C1099.57 147.03 1102.25 155.32 1102.59 159.757C1102.72 161.403 1099.35 169.709 1098.97 167.424C1098.93 167.424 1096.79 151.916 1093.77 145.462Z" fill="url(#paint6_linear)"/>
<path d="M69.9369 71.0095C69.9369 71.0095 61.0874 99.2444 53.8692 105.627C46.6509 112.01 76.6351 118.953 76.6351 118.953C76.6351 118.953 78.2978 104.516 88.5737 94.2404C98.8495 83.9646 69.9369 71.0095 69.9369 71.0095Z" fill="url(#paint7_linear)"/>
<path d="M121.395 32.0494C122.183 52.8847 116.864 57.5183 117.896 62.4749C119.417 69.7957 123.373 76.7066 124.295 78.7791C124.448 79.1207 124.502 79.4984 124.45 79.8691C124.398 80.2398 124.244 80.5885 124.003 80.8753C122.876 82.2228 120.536 84.2007 114.996 83.2945C114.996 83.2945 109.48 101.364 100.977 101.742C86.1623 102.412 62.8763 78.1014 60.0394 55.7689C58.3688 42.5537 81.8282 24.0037 81.8282 24.0037C81.8282 24.0037 120.623 11.1904 121.395 32.0494Z" fill="#E1AE72"/>
<path d="M82.7267 64.2636C82.7267 64.2636 86.3358 63.7041 86.3358 52.8767C86.3358 42.0493 94.6889 35.2171 98.5423 38.5505C102.396 41.8838 115.989 45.422 121.261 42.924C126.533 40.426 131.135 41.7026 133.247 35.0438C135.359 28.385 135.611 22.727 130.835 18.1643C125.587 13.1368 118.377 12.9713 118.377 12.9713C118.377 12.9713 115.225 0.65447 101.687 0.047693C83.4911 -0.74033 84.1451 8.44802 84.1451 8.44802C84.1451 8.44802 69.1727 0.654468 59.9922 6.00514C51.9071 10.7333 53.9402 15.9421 50.8827 18.4638C47.8252 20.9854 35.532 23.452 33.8693 37.0532C32.2066 50.6545 39.3854 52.8767 42.1908 58.7081C44.9962 64.5395 38.558 82.2463 63.2625 89.1888C63.2625 89.1888 73.428 85.7136 74.4761 78.322C75.3508 72.136 69.4012 68.7002 68.2901 63.9878C67.179 59.2755 72.1751 55.6584 75.5084 57.3212C78.8417 58.9839 82.7267 64.2636 82.7267 64.2636Z" fill="#FFD180"/>
<path d="M167.707 128.48L164.216 127.786L150.315 125.036L131.088 121.214L142.033 89.0471L158.219 97.0613L170.898 103.365L175.477 105.635C179.874 107.077 172.088 129.969 167.707 128.48Z" fill="white"/>
<path opacity="0.44" d="M171.939 124.855C170.489 127.345 168.96 128.905 167.707 128.48L131.111 121.199L133.341 114.658L171.3 124.8C171.504 124.877 171.725 124.896 171.939 124.855Z" fill="#BACEE2"/>
<path d="M139.936 106.263C142.959 97.38 143.909 89.6686 142.059 89.0392C140.209 88.4097 136.26 95.1007 133.237 103.984C130.215 112.867 129.264 120.578 131.114 121.208C132.964 121.837 136.914 115.146 139.936 106.263Z" fill="url(#paint8_linear)"/>
<path opacity="0.44" d="M171.3 108.961C170.733 116.108 166.73 122.869 164.208 127.786L150.315 125.036C150.008 118.858 149.598 112.341 152.679 105.336C154.681 100.812 156.549 98.3302 158.196 97.0378L170.875 103.342C171.325 105.179 171.469 107.077 171.3 108.961Z" fill="#BACEE2"/>
<path d="M123.523 157.818C128.011 159.951 131.952 163.083 135.043 166.974C135.043 166.974 134.35 164.752 138.235 156.147C142.12 147.542 147.691 139.496 147.951 131.443C148.211 123.389 146.021 114.792 150.181 105.335C154.342 95.8791 157.959 95.3353 160.426 95.8791C162.892 96.4228 169.583 98.3771 168.755 108.929C167.928 119.48 159.59 129.189 159.59 133.357C159.59 137.526 160.851 160.686 160.426 172.499C159.937 185.895 154.673 195.8 150.355 198.212C142.9 202.38 124.886 196.092 114.894 191.119C104.902 186.147 123.523 157.818 123.523 157.818Z" fill="#E1AE72"/>
<path d="M168.779 108.961C167.943 119.512 159.622 129.221 159.622 133.389C159.622 137.558 160.883 160.718 160.449 172.53C159.961 185.966 154.705 195.84 150.386 198.243C142.931 202.412 124.925 196.124 114.925 191.151C104.925 186.179 123.522 157.81 123.522 157.81C126.06 158.988 128.416 160.522 130.52 162.365C128.442 171.384 125.81 180.266 122.64 188.961C131.986 193.263 144.295 197.629 148.456 194.918C152.616 192.207 158.03 182.625 158.519 169.197C158.952 157.377 157.731 134.217 157.731 130.056C157.731 125.895 166.068 116.171 166.895 105.627C167.13 103.448 166.916 101.243 166.265 99.1497C167.959 101.049 169.173 104.091 168.779 108.961Z" fill="url(#paint9_linear)"/>
<path d="M129.149 159.93C128.077 166.447 118.259 199.457 115.201 198.63C112.143 197.802 90.5911 189.457 90.5911 189.457C89.2987 204.43 74.9488 237.211 74.9488 237.211H0C0 237.211 10.2443 178.898 16.6509 152.27C23.0575 125.643 42.7502 114.508 42.7502 114.508C40.528 113.405 46.3594 100.907 49.1332 99.796C51.907 98.6849 55.6186 103.586 62.1829 106.463C68.7471 109.339 79.1175 109.386 82.4429 114.508C84.1846 117.254 84.9302 120.514 84.5548 123.744C84.5133 124.185 84.4396 124.622 84.3342 125.052C84.3342 125.052 85.5005 125.88 87.3365 127.219C91.3318 130.119 98.5028 135.407 103.83 139.772C111.6 146.155 129.149 159.93 129.149 159.93Z" fill="url(#paint10_linear)"/>
<path opacity="0.21" d="M87.3366 127.219C77.8803 126.273 69.4406 125.146 61.0639 123.042C53.5304 121.159 43.9717 115.729 43.3019 115.241C40.7802 113.405 57.3917 120.639 61.1821 121.6C67.8015 123.294 84.3342 125.052 84.3342 125.052C84.3342 125.052 85.5005 125.879 87.3366 127.219Z" fill="#AD0B37"/>
<path opacity="0.21" d="M118.857 193.074C117.344 196.604 116.028 198.858 115.201 198.63C112.151 197.794 90.5911 189.457 90.5911 189.457C89.2987 204.429 74.9488 237.211 74.9488 237.211H66.7849C70.9614 224.161 81.8204 189.362 82.8606 177.282C82.8606 177.282 111.411 190.135 118.857 193.074Z" fill="#AD0B37"/>
<defs>
<linearGradient id="paint0_linear" x1="1082.71" y1="58.6531" x2="1187.57" y2="97.6682" gradientUnits="userSpaceOnUse">
<stop stop-color="#2E1771"/>
<stop offset="1" stop-color="#443282"/>
</linearGradient>
<linearGradient id="paint1_linear" x1="1165.76" y1="147.156" x2="1142.85" y2="66.7932" gradientUnits="userSpaceOnUse">
<stop stop-color="#E9B883"/>
<stop offset="1" stop-color="#B78047"/>
</linearGradient>
<linearGradient id="paint2_linear" x1="51506.9" y1="16101.8" x2="53225.7" y2="17599.7" gradientUnits="userSpaceOnUse">
<stop stop-color="#E9B883"/>
<stop offset="1" stop-color="#B78047"/>
</linearGradient>
<linearGradient id="paint3_linear" x1="58908.5" y1="6021.51" x2="58670.6" y2="7506.12" gradientUnits="userSpaceOnUse">
<stop stop-color="#E9B883"/>
<stop offset="1" stop-color="#B78047"/>
</linearGradient>
<linearGradient id="paint4_linear" x1="75042.5" y1="10678.3" x2="73007.6" y2="11397.5" gradientUnits="userSpaceOnUse">
<stop stop-color="#E9B883"/>
<stop offset="1" stop-color="#B78047"/>
</linearGradient>
<linearGradient id="paint5_linear" x1="1096.62" y1="76.0172" x2="1079.34" y2="92.0695" gradientUnits="userSpaceOnUse">
<stop stop-color="#BACEE2"/>
<stop offset="1" stop-color="#443282"/>
</linearGradient>
<linearGradient id="paint6_linear" x1="41774.3" y1="25380.3" x2="44249.4" y2="25316.5" gradientUnits="userSpaceOnUse">
<stop stop-color="#E9B883"/>
<stop offset="1" stop-color="#B78047"/>
</linearGradient>
<linearGradient id="paint7_linear" x1="3234.37" y1="13419.9" x2="5906.48" y2="11474.4" gradientUnits="userSpaceOnUse">
<stop stop-color="#E9B883"/>
<stop offset="1" stop-color="#B78047"/>
</linearGradient>
<linearGradient id="paint8_linear" x1="6652.16" y1="1911.73" x2="7011.04" y2="2309.58" gradientUnits="userSpaceOnUse">
<stop stop-color="#BACEE2"/>
<stop offset="1" stop-color="#443282"/>
</linearGradient>
<linearGradient id="paint9_linear" x1="9269.97" y1="25129.3" x2="19616.6" y2="32980.7" gradientUnits="userSpaceOnUse">
<stop stop-color="#E9B883"/>
<stop offset="1" stop-color="#B78047"/>
</linearGradient>
<linearGradient id="paint10_linear" x1="111.229" y1="35.8401" x2="13.688" y2="344.335" gradientUnits="userSpaceOnUse">
<stop stop-color="#F2926F"/>
<stop offset="1" stop-color="#D45D61"/>
</linearGradient>
</defs>
</svg>
