<svg width="461" height="584" viewBox="0 0 461 584" fill="none" xmlns="http://www.w3.org/2000/svg">
<path d="M459.721 221.012C459.519 228.879 458.952 233.735 458.952 233.735V382.064C458.952 382.064 414.817 315.141 347.419 300.404C326.88 295.913 301.687 293.358 274.415 290.933C265.941 290.183 257.298 289.44 248.512 288.664C241.342 288.013 234.061 287.361 226.767 286.644C218.619 285.842 210.432 284.975 202.252 283.984C190.135 282.524 178.056 280.823 166.206 278.737C150.451 276.075 134.877 272.433 119.575 267.832L118.845 267.611C98.3972 261.255 79.7356 252.912 64.0919 241.701C61.5367 239.871 59.0859 237.944 56.7394 235.919C9.4041 195.206 1.42581 116.988 2.39703 62.2348C2.70785 44.2946 4.01349 26.3855 6.30795 8.58991C6.87504 4.34004 7.26611 2 7.26611 2C7.26611 2 70.3428 52.5748 175.286 66.426C191.484 68.5705 206.639 70.2913 220.914 71.7775C233.428 73.0811 245.253 74.2088 256.483 75.2582C274.441 76.9399 290.88 78.4586 306.237 80.2837C311.262 80.8834 316.171 81.5092 320.968 82.2001C345.196 85.6287 366.843 90.3413 387.793 98.4956C396.466 101.87 404.911 105.803 413.077 110.268C416.027 111.872 418.858 113.684 421.551 115.691C457.27 142.331 460.334 196.386 459.721 221.012Z" fill="url(#paint0_linear)"/>
<path d="M75.8927 109.994L69.1418 109.455C68.8045 109.428 68.5092 109.679 68.4822 110.017L67.563 121.517C67.536 121.855 67.7876 122.15 68.1249 122.177L74.8758 122.716C75.2132 122.743 75.5085 122.492 75.5354 122.154L76.4547 110.654C76.4816 110.317 76.2301 110.021 75.8927 109.994Z" fill="white"/>
<path d="M87.3543 98.3963L81.1102 97.8972C80.6329 97.8591 80.2151 98.2151 80.177 98.6923L78.3037 122.129C78.2655 122.606 78.6215 123.024 79.0987 123.062L85.3428 123.561C85.8201 123.599 86.2379 123.243 86.276 122.766L88.1494 99.3296C88.1875 98.8523 87.8316 98.4345 87.3543 98.3963Z" fill="white"/>
<path opacity="0.37" d="M97.0848 131.535L66.1892 129.065C65.1127 128.979 64.1702 129.782 64.0842 130.859L61.1171 167.979C61.0311 169.055 61.834 169.998 62.9106 170.084L93.8061 172.553C94.8827 172.639 95.8251 171.836 95.9112 170.76L98.8782 133.64C98.9643 132.563 98.1613 131.621 97.0848 131.535Z" fill="white"/>
<path d="M97.9398 96.6687L91.7867 96.1769C91.2844 96.1368 90.8445 96.5115 90.8044 97.0139L88.7347 122.906C88.6946 123.409 89.0693 123.849 89.5717 123.889L95.7248 124.381C96.2272 124.421 96.667 124.046 96.7072 123.544L98.7768 97.6511C98.817 97.1487 98.4422 96.7089 97.9398 96.6687Z" fill="white"/>
<path d="M67.2662 135.689L82.017 136.868" stroke="white" stroke-width="2" stroke-miterlimit="10"/>
<path d="M66.9925 142.207L94.1278 144.377" stroke="white" stroke-width="2" stroke-miterlimit="10"/>
<path d="M66.5753 148.627L92.1071 150.667" stroke="white" stroke-width="2" stroke-miterlimit="10"/>
<path d="M66.3016 155.139L90.7253 157.094" stroke="white" stroke-width="2" stroke-miterlimit="10"/>
<path d="M66.3667 161.722L77.8648 162.641" stroke="white" stroke-width="2" stroke-miterlimit="10"/>
<path d="M107.784 306.055C120.725 306.055 131.217 303.963 131.217 301.382C131.217 298.8 120.725 296.708 107.784 296.708C94.8419 296.708 84.3506 298.8 84.3506 301.382C84.3506 303.963 94.8419 306.055 107.784 306.055Z" fill="url(#paint1_radial)"/>
<path d="M143.757 307.359C156.699 307.359 167.19 305.266 167.19 302.685C167.19 300.104 156.699 298.012 143.757 298.012C130.816 298.012 120.324 300.104 120.324 302.685C120.324 305.266 130.816 307.359 143.757 307.359Z" fill="url(#paint2_radial)"/>
<path d="M162.452 262.546L115.846 259.13L119.262 212.532" stroke="#7CFFB4" stroke-width="3" stroke-miterlimit="10"/>
<path opacity="0.44" d="M211.514 264.801C260.423 264.801 300.071 225.153 300.071 176.245C300.071 127.336 260.423 87.6884 211.514 87.6884C162.606 87.6884 122.958 127.336 122.958 176.245C122.958 225.153 162.606 264.801 211.514 264.801Z" stroke="white" stroke-width="2" stroke-miterlimit="10"/>
<path d="M202.545 110.926C203.719 118.513 209.011 123.467 212.042 123.369C214.773 123.252 219.734 117.646 220.711 110.333C221.644 103.358 216.233 97.7265 211.214 97.8894C211.11 97.8894 211.006 97.9481 210.915 97.8894C204.168 94.6825 200.583 98.274 202.545 110.926Z" fill="#7CC8F6"/>
<path d="M210.771 115.893C211.26 115.723 211.423 119.523 212.075 123.369C214.806 123.252 219.766 117.646 220.744 110.333C221.676 103.358 217.198 97.0225 212.179 97.1855C212.075 97.1855 211.045 97.896 210.947 97.909C211.045 100.562 210.765 107.445 210.856 108.586C210.967 110 208.809 114.341 208.62 114.726C208.19 115.632 210.028 116.147 210.771 115.893Z" fill="#7CC8F6"/>
<path d="M215.725 119.087C215.725 119.087 214.109 127.026 216.885 129.711C219.812 132.547 214.689 134.215 211.918 134.926C209.148 135.636 205.915 130.304 205.915 130.304C206.549 129.967 207.107 129.504 207.555 128.944C208.003 128.383 208.332 127.737 208.522 127.045C209.35 124.536 208.522 119.569 208.522 119.569L215.725 119.087Z" fill="#7CC8F6"/>
<path d="M217.113 128.61C217.113 128.61 225.053 130.885 228.253 133.394C231.453 135.904 235.99 145.342 235.99 145.342C235.99 145.342 233.565 149.827 227.327 151.73L224.818 148.875C224.818 148.875 220.907 170.522 220.861 177.366C220.861 177.366 209.924 182.822 200.309 176.76C200.309 176.76 199.964 165.588 199.006 158.509C198.048 151.43 197.363 146.646 197.363 146.646L193.987 150.974C193.987 150.974 187.293 147.793 186.25 142.943C186.25 142.943 191.992 134.691 195.545 132.266C199.097 129.842 207.147 128.023 207.147 128.023C207.147 128.023 208.783 132.273 212.362 132.045C216.462 131.765 217.113 128.61 217.113 128.61Z" fill="#7CC8F6"/>
<path d="M227.738 150.263C227.738 150.263 230.267 155.908 232.04 157.811C232.04 157.811 230.6 159.2 227.015 164.851C222.823 171.467 220.966 173.031 220.158 177.366C219.349 181.701 222.113 184.712 224.212 183.754C226.311 182.796 225.952 177.887 225.307 175.111C227.427 173.214 229.644 171.428 231.949 169.759C235.964 166.859 239.771 161.937 240.423 158.939C241.074 155.941 235.932 146.268 233.904 143.347C231.877 140.427 227.738 150.263 227.738 150.263Z" fill="#7CC8F6"/>
<path d="M187.729 142.728C187.729 142.728 182.424 149.312 179.999 154.872C178.043 159.343 184.353 165.607 186.602 167.256C188.85 168.905 195.649 173.735 196.073 174.628C195.466 176.186 194.358 178.943 194.424 181.264C194.521 184.484 196.262 184.803 198.08 184.367C199.899 183.93 200.864 179.074 200.779 175.958C200.694 172.842 197.676 169.44 196.464 167.484C195.251 165.529 190.995 158.613 188.12 157.107C190.202 154.729 192.125 152.216 193.876 149.585L187.729 142.728Z" fill="#7CC8F6"/>
<path d="M201.294 176.238C201.294 176.238 198.413 187.554 195.988 195.637C193.563 203.719 192.729 217.349 190.773 221.775C187.143 229.857 185.122 246.309 185.122 246.309C187.308 247.68 189.857 248.362 192.436 248.265C192.436 248.265 199.808 228.11 201.307 223.724C202.806 219.337 209.507 196.243 210.778 192.664C210.778 192.664 214.474 217.375 215.738 221.181C217.003 224.988 220.555 246.087 222.745 250.474C224.136 250.803 225.58 250.837 226.985 250.573C228.389 250.309 229.723 249.754 230.9 248.942C230.9 248.942 230.717 229.968 227.536 222.153C225.111 216.195 224.362 197.103 223.625 192.547C222.595 187.041 221.246 181.6 219.584 176.251L201.294 176.238Z" fill="#7CC8F6"/>
<path d="M191.367 260.291C189.059 262.748 180.514 259.248 178.669 257.52C176.824 255.793 181.928 252.208 183.519 250.82C185.109 249.431 188.251 249.549 189.385 250.82C190.519 252.091 193.1 258.433 191.367 260.291Z" fill="#7CC8F6"/>
<path d="M225.033 255.767C224.133 258.374 223.077 260.982 223.84 262.644C224.603 264.306 229.511 263.296 233.617 261.992C237.724 260.688 235.97 257.618 234.836 256.334C233.467 254.783 231.682 253.114 229.778 252.71C227.875 252.306 226.115 252.69 225.033 255.767Z" fill="#7CC8F6"/>
<path d="M214.702 103.169C214.702 103.169 215.516 107.673 218.358 108.736C221.2 109.798 219.812 112.308 219.812 114.211C221.435 115.991 226.063 112.829 224.792 109.303C224.792 109.303 228.866 105.535 227.451 100.751C226.037 95.9665 220.835 95.5363 220.835 95.5363C220.835 95.5363 220.835 90.4456 215.673 89.2332C210.511 88.0208 206.952 91.7232 205.896 92.7661C203.508 92.8356 201.225 93.7609 199.462 95.3734C195.362 98.828 196.288 105.803 199.403 108.345C198.835 109.125 198.529 110.065 198.529 111.03C198.529 111.995 198.835 112.935 199.403 113.716C200.824 115.632 203.262 114.009 203.262 114.009C202.848 112.397 202.518 110.766 202.271 109.12C202.271 109.12 205.374 107.165 205.896 104.186C205.896 104.186 208.412 104.655 209.07 103.443C210.758 103.73 211.84 104.844 214.702 103.169Z" fill="#7CC8F6"/>
<path d="M185.924 244.816C185.924 244.816 186.321 248.486 185.011 250.5C183.701 252.514 188.961 252.026 188.961 252.026C188.961 252.026 190.317 247.867 192.077 246.374C194.202 244.569 185.924 244.816 185.924 244.816Z" fill="#7CC8F6"/>
<path d="M224.16 247.698C225.203 250.23 226.074 252.83 226.767 255.48C226.878 255.989 230.899 254.489 230.899 254.489C230.065 252.593 229.729 250.516 229.922 248.454C230.222 245.005 224.16 247.698 224.16 247.698Z" fill="#7CC8F6"/>
<path d="M125.513 127.274L128.929 80.6683L175.527 84.0838" stroke="#7CFFB4" stroke-width="3" stroke-miterlimit="10"/>
<path d="M328.138 216.984C328.275 220.099 329.333 223.104 331.178 225.619C333.023 228.133 335.572 230.044 338.503 231.109C341.434 232.175 344.615 232.347 347.644 231.605C350.673 230.862 353.414 229.238 355.52 226.938C357.626 224.638 359.002 221.765 359.475 218.682C359.949 215.6 359.497 212.446 358.178 209.62C356.858 206.795 354.731 204.423 352.064 202.807C349.397 201.19 346.311 200.401 343.195 200.538C339.018 200.724 335.086 202.561 332.263 205.645C329.44 208.728 327.956 212.807 328.138 216.984ZM332.31 216.801C332.21 214.51 332.792 212.241 333.982 210.281C335.172 208.321 336.916 206.757 338.994 205.788C341.072 204.819 343.391 204.488 345.658 204.836C347.924 205.185 350.036 206.198 351.727 207.747C353.418 209.295 354.612 211.311 355.157 213.538C355.703 215.765 355.576 218.104 354.793 220.259C354.01 222.414 352.605 224.289 350.756 225.646C348.908 227.002 346.698 227.781 344.408 227.882C342.885 227.95 341.364 227.718 339.932 227.198C338.5 226.677 337.184 225.88 336.061 224.851C334.937 223.821 334.027 222.581 333.384 221.199C332.74 219.818 332.375 218.324 332.31 216.801Z" fill="white"/>
<path d="M343.3 232.973C343.743 232.973 344.18 232.973 344.603 232.973C347.506 232.841 350.324 231.954 352.778 230.4C355.233 228.846 357.24 226.678 358.601 224.111C359.962 221.543 360.629 218.666 360.537 215.762C360.445 212.858 359.597 210.028 358.076 207.552L353.357 211.463C354.06 212.82 354.456 214.316 354.517 215.843C354.58 217.242 354.365 218.64 353.887 219.956C353.409 221.273 352.677 222.482 351.731 223.515C350.786 224.548 349.646 225.385 348.377 225.978C347.108 226.571 345.735 226.908 344.336 226.97C344.075 226.97 343.808 226.97 343.547 226.97L343.3 232.973Z" fill="#58A9DA"/>
<path d="M353.618 215.856C353.618 216.149 353.618 216.436 353.618 216.723L361.029 217.068C361.055 216.556 361.055 216.043 361.029 215.53C360.873 211.94 359.593 208.49 357.371 205.665C355.149 202.841 352.097 200.786 348.644 199.789L347.575 207.259C349.3 207.963 350.786 209.148 351.857 210.672C352.928 212.196 353.539 213.995 353.618 215.856Z" fill="#00D2C8"/>
<path d="M372.358 219.976C372.495 223.091 373.553 226.096 375.398 228.61C377.243 231.125 379.792 233.036 382.723 234.101C385.654 235.167 388.835 235.339 391.864 234.597C394.893 233.854 397.634 232.23 399.74 229.93C401.845 227.63 403.222 224.757 403.695 221.674C404.168 218.592 403.717 215.438 402.397 212.612C401.078 209.787 398.951 207.415 396.284 205.799C393.617 204.182 390.53 203.393 387.415 203.53C383.237 203.714 379.304 205.551 376.481 208.635C373.657 211.719 372.174 215.798 372.358 219.976ZM376.529 219.793C376.431 217.504 377.014 215.236 378.204 213.278C379.394 211.32 381.137 209.758 383.214 208.79C385.292 207.823 387.609 207.493 389.874 207.842C392.138 208.191 394.249 209.204 395.938 210.752C397.628 212.3 398.82 214.314 399.365 216.54C399.91 218.766 399.783 221.103 399 223.257C398.217 225.41 396.813 227.283 394.965 228.639C393.118 229.995 390.91 230.773 388.621 230.874C387.097 230.94 385.575 230.706 384.142 230.183C382.71 229.661 381.394 228.861 380.271 227.829C379.148 226.797 378.239 225.554 377.597 224.171C376.955 222.787 376.592 221.291 376.529 219.767V219.793Z" fill="white"/>
<path d="M379.449 233.709C379.828 233.931 380.212 234.146 380.616 234.361C383.222 235.66 386.123 236.254 389.03 236.085C391.937 235.915 394.749 234.989 397.187 233.397C399.625 231.805 401.604 229.603 402.928 227.01C404.252 224.416 404.874 221.522 404.734 218.613L398.717 219.754C398.656 221.536 398.149 223.274 397.242 224.81C396.336 226.346 395.058 227.629 393.527 228.544C391.996 229.458 390.261 229.974 388.479 230.044C386.697 230.114 384.926 229.736 383.328 228.945C383.093 228.827 382.858 228.703 382.637 228.567L379.449 233.709Z" fill="#58A9DA"/>
<path d="M397.837 218.822C397.837 219.115 397.837 219.402 397.837 219.689L405.249 220.028C405.275 219.515 405.275 219.002 405.249 218.489C405.09 214.793 403.736 211.247 401.39 208.386C399.969 209.423 397.414 211.456 395.523 212.91C396.939 214.563 397.754 216.647 397.837 218.822Z" fill="#00D2C8"/>
<path d="M297.724 225.607L294.315 272.206L247.716 268.797" stroke="#7CFFB4" stroke-width="3" stroke-miterlimit="10"/>
<path d="M260.792 90.3283L307.391 93.7504L303.982 140.343" stroke="#7CFFB4" stroke-width="3" stroke-miterlimit="10"/>
<path opacity="0.42" d="M270.445 186.087C278.434 186.087 284.909 179.612 284.909 171.623C284.909 163.635 278.434 157.16 270.445 157.16C262.457 157.16 255.982 163.635 255.982 171.623C255.982 179.612 262.457 186.087 270.445 186.087Z" fill="#7CC8F6"/>
<path d="M277.283 173.788L270.445 180.469L263.608 173.788C257.917 168.241 266.117 160.301 270.445 168.136C274.774 160.301 282.947 168.241 277.283 173.788Z" stroke="white" stroke-width="0.75" stroke-miterlimit="10"/>
<path d="M259.912 173.299H267.382L268.249 174.081L269.435 172.484L270.576 174.081L271.932 168.971L272.61 176.506L274.057 171.734L274.904 173.859L275.914 172.738H280.862" stroke="white" stroke-width="0.75" stroke-linejoin="round"/>
<path opacity="0.42" d="M156.455 154.005C164.443 154.005 170.919 147.529 170.919 139.541C170.919 131.553 164.443 125.077 156.455 125.077C148.467 125.077 141.991 131.553 141.991 139.541C141.991 147.529 148.467 154.005 156.455 154.005Z" fill="#7CC8F6"/>
<path d="M156.259 154.005C164.248 154.005 170.723 147.529 170.723 139.541C170.723 131.553 164.248 125.077 156.259 125.077C148.271 125.077 141.796 131.553 141.796 139.541C141.796 147.529 148.271 154.005 156.259 154.005Z" stroke="white" stroke-width="0.75" stroke-miterlimit="10"/>
<path d="M159.101 133.492C158.893 135.219 158.717 143.269 159.232 144.664C159.747 146.059 163.436 148.093 164.557 148.093C165.678 148.093 166.512 142.07 165.365 137.911C163.944 132.677 159.44 130.611 159.101 133.492Z" stroke="white" stroke-width="0.75" stroke-miterlimit="10"/>
<path d="M154.402 133.492C154.61 135.219 154.793 143.269 154.271 144.664C153.75 146.059 150.074 148.093 148.946 148.093C147.818 148.093 146.991 142.07 148.138 137.911C149.559 132.677 154.056 130.611 154.402 133.492Z" stroke="white" stroke-width="0.75" stroke-miterlimit="10"/>
<path d="M155.953 125.24V133.942L151.821 138.074L152.779 139.032L156.624 135.187L160.138 138.693L161.096 137.735L157.309 133.948V125.24" fill="#62A9D0"/>
<path d="M155.953 125.24V133.942L151.821 138.074L152.779 139.032L156.624 135.187L160.138 138.693L161.096 137.735L157.309 133.948V125.24" stroke="white" stroke-width="0.75" stroke-miterlimit="10"/>
<path opacity="0.42" d="M262.937 125.937C270.925 125.937 277.4 119.462 277.4 111.473C277.4 103.485 270.925 97.0095 262.937 97.0095C254.948 97.0095 248.473 103.485 248.473 111.473C248.473 119.462 254.948 125.937 262.937 125.937Z" fill="#7CC8F6"/>
<path d="M262.761 125.937C270.749 125.937 277.224 119.462 277.224 111.473C277.224 103.485 270.749 97.0095 262.761 97.0095C254.772 97.0095 248.297 103.485 248.297 111.473C248.297 119.462 254.772 125.937 262.761 125.937Z" stroke="white" stroke-width="0.75" stroke-miterlimit="10"/>
<path d="M265.348 112.829C265.348 112.829 267.545 116.923 262.226 117.392C256.359 117.9 252.898 114.309 252.846 111.819C252.801 109.518 253.589 106.089 258.934 103.997C264.279 101.905 271.514 104.219 272.57 106.865C273.45 109.062 272.486 111.721 269.35 112.634C266.815 113.344 265.348 112.829 265.348 112.829Z" stroke="white" stroke-width="0.75" stroke-miterlimit="10"/>
<path d="M254.267 114.732C254.267 114.732 253.941 117.77 255.916 118.487C256.488 118.741 257.135 118.767 257.726 118.561C258.316 118.356 258.807 117.933 259.097 117.379" stroke="white" stroke-width="0.75" stroke-miterlimit="10"/>
<path d="M255.916 118.487C256.216 120.291 256.216 122.132 255.916 123.936" stroke="white" stroke-width="0.75" stroke-miterlimit="10"/>
<path d="M265.348 112.829C265.348 112.829 263.21 110.528 260.962 110.58" stroke="white" stroke-width="0.75" stroke-miterlimit="10"/>
<path d="M260.042 110.991C260.042 110.991 261.548 110.73 260.59 109.505" stroke="white" stroke-width="0.75" stroke-miterlimit="10"/>
<path d="M267.499 106.976C267.578 107.354 267.604 108.788 267.115 109.277C266.626 109.766 265.55 109.74 265.329 110.274" stroke="white" stroke-width="0.75" stroke-miterlimit="10"/>
<path d="M267.115 109.277C267.115 109.277 268.484 109.427 268.868 109.889" stroke="white" stroke-width="0.75" stroke-miterlimit="10"/>
<path d="M272.864 107.941C272.478 107.544 271.98 107.275 271.437 107.17C270.894 107.065 270.332 107.129 269.826 107.354" stroke="white" stroke-width="0.75" stroke-miterlimit="10"/>
<path d="M257.077 109.042C257.093 108.876 257.142 108.716 257.222 108.57C257.302 108.424 257.411 108.296 257.542 108.193C257.673 108.091 257.824 108.016 257.985 107.974C258.146 107.931 258.313 107.922 258.478 107.947" stroke="white" stroke-width="0.75" stroke-miterlimit="10"/>
<path d="M257.077 104.844C258.376 104.919 259.668 105.091 260.942 105.359C262.317 105.737 263.249 106.663 263.139 107.354C263.028 108.045 262.917 108.247 263.139 108.488" stroke="white" stroke-width="0.75" stroke-miterlimit="10"/>
<path d="M255.571 115.593C255.571 115.593 256.751 114.941 256.914 114.081C257.011 113.566 258.256 113.109 258.667 113.722" stroke="white" stroke-width="0.75" stroke-miterlimit="10"/>
<path d="M254.86 112.138C255.238 112.138 256.529 112.034 256.725 111.395C256.92 110.756 256.203 110.248 256.203 110.248" stroke="white" stroke-width="0.75" stroke-miterlimit="10"/>
<path d="M257.957 111.526C257.783 111.394 257.576 111.312 257.359 111.289C257.142 111.266 256.922 111.303 256.725 111.395" stroke="white" stroke-width="0.75" stroke-miterlimit="10"/>
<path d="M262.089 105.822C262.556 105.621 263.061 105.525 263.569 105.542C264.696 105.64 264.872 106.285 264.872 106.285" stroke="white" stroke-width="0.75" stroke-miterlimit="10"/>
<path d="M257.337 108.397C257.045 108.161 256.833 107.842 256.729 107.481C256.626 107.121 256.635 106.737 256.757 106.383" stroke="white" stroke-width="0.75" stroke-miterlimit="10"/>
<path d="M253.791 108.514C254.322 108.612 254.868 108.596 255.392 108.465C255.916 108.335 256.406 108.094 256.829 107.758" stroke="white" stroke-width="0.75" stroke-miterlimit="10"/>
<path d="M261.385 113.8C261.781 113.751 262.181 113.852 262.506 114.084C262.831 114.316 263.057 114.661 263.139 115.052" stroke="white" stroke-width="0.75" stroke-miterlimit="10"/>
<path opacity="0.55" d="M306.191 80.2968L118.877 267.611C98.4299 261.255 79.7682 252.912 64.1245 241.701C61.5694 239.871 59.1185 237.944 56.772 235.919L220.894 71.7905C253.394 75.18 281.233 77.3245 306.191 80.2968Z" fill="url(#paint3_linear)"/>
<path d="M219.049 143.295H239.367L255.981 171.623" stroke="white" stroke-width="0.75" stroke-miterlimit="10"/>
<path d="M212.134 99.5125L220.855 110.782H248.479" stroke="white" stroke-width="0.75" stroke-miterlimit="10"/>
<path d="M170.919 139.541H198.269L204.963 149.012" stroke="white" stroke-width="0.75" stroke-miterlimit="10"/>
<path opacity="0.37" d="M409.584 154.422L340.655 146.349C338.356 146.08 336.274 147.725 336.005 150.024L332.384 180.937C332.115 183.236 333.761 185.318 336.06 185.588L404.988 193.66C407.287 193.93 409.369 192.284 409.638 189.985L413.259 159.072C413.528 156.773 411.883 154.691 409.584 154.422Z" fill="white"/>
<path d="M403.712 161.474L386.595 159.469C385.895 159.387 385.26 159.889 385.178 160.59L382.83 180.639C382.748 181.34 383.249 181.975 383.95 182.057L401.067 184.062C401.768 184.144 402.402 183.642 402.485 182.941L404.833 162.892C404.915 162.191 404.413 161.556 403.712 161.474Z" fill="white"/>
<path d="M345.04 159.617L378.309 163.508" stroke="white" stroke-width="3" stroke-miterlimit="10"/>
<path d="M343.312 173.012L376.581 176.91" stroke="white" stroke-width="3" stroke-miterlimit="10"/>
<path d="M275.497 214.937L250.011 212.454" stroke="white" stroke-width="2" stroke-miterlimit="10"/>
<path d="M275.706 209.996L250.22 207.519" stroke="white" stroke-width="2" stroke-miterlimit="10"/>
<path d="M276.194 204.964L250.708 202.481" stroke="white" stroke-width="2" stroke-miterlimit="10"/>
<path d="M268.503 198.739L251.314 197.071" stroke="white" stroke-width="3" stroke-miterlimit="10"/>
<path opacity="0.55" d="M421.498 115.684L248.544 288.664C233.344 287.322 217.791 285.855 202.265 283.984L387.727 98.5152C396.4 101.89 404.846 105.822 413.012 110.287C415.965 111.883 418.801 113.686 421.498 115.684Z" fill="url(#paint4_linear)"/>
<path opacity="0.1" d="M459.721 221.012C459.519 228.879 458.952 233.735 458.952 233.735V277.779L256.438 75.2712C274.395 76.9529 290.834 78.4717 306.191 80.2968C311.217 80.8965 316.125 81.5222 320.923 82.2131L459.721 221.012Z" fill="url(#paint5_linear)"/>
<path opacity="0.08" d="M281.533 283.854L274.474 290.933C266 290.183 257.357 289.44 248.57 288.664C241.4 288.013 234.119 287.361 226.826 286.644L192.592 252.417L163.827 223.639L2.39703 62.2348C2.70786 44.2946 4.0135 26.3855 6.30796 8.58994L192.579 194.861L221.35 223.626L281.533 283.854Z" fill="url(#paint6_linear)"/>
<path opacity="0.1" d="M312.931 132.045L221.337 223.639L166.271 278.737C150.516 276.075 134.942 272.433 119.64 267.832L163.834 223.639L192.598 194.874L284.166 103.3L312.931 132.045Z" fill="url(#paint7_linear)"/>
<path d="M136.288 288.808C136.288 288.808 138.302 293.762 138.471 296.708C138.641 299.654 144.429 296.597 144.429 296.597C144.429 296.597 143.412 294.316 142.695 287.419C142.239 282.909 136.288 288.808 136.288 288.808Z" fill="#DDAA72"/>
<path d="M99.2316 284.649C99.2316 284.649 100.47 288.312 99.2316 294.172C98.7167 296.643 104.961 293.521 104.961 293.521C105.288 290.882 105.865 288.281 106.682 285.751C107.607 282.85 99.2316 284.649 99.2316 284.649Z" fill="#DDAA72"/>
<path d="M87.7921 174.504C87.7921 174.504 81.2153 182.659 81.2087 187.821C81.2087 193.238 96.2789 201.509 99.0556 204.117C99.0556 204.117 95.966 208.849 96.0768 211.424C96.1485 213.255 97.1132 215.1 99.3946 213.985C101.676 212.871 103.697 204.918 102.764 202.376C101.832 199.834 97.5499 193.564 95.4119 191.126C93.9033 189.414 92.2335 187.851 90.4255 186.459C92.2176 184.638 93.727 182.56 94.9035 180.293C96.344 177.438 87.7921 174.504 87.7921 174.504Z" fill="#DDAA72"/>
<path d="M132.546 181.655C132.546 181.655 135.805 185.044 138.413 187.143C138.413 187.143 137.005 187.541 134.065 193.062C132.11 196.771 129.502 202.415 127.99 205.277C126.908 207.369 126.686 212.903 127.338 215.054C128.107 217.662 132.168 218.111 133.328 214.402C134.124 211.867 131.295 206.796 131.295 206.796C131.295 206.796 139.462 199.398 142.291 196.021C145.009 192.762 148.157 188.199 146.782 184.451C145.785 181.844 139.227 173.859 139.227 173.859L132.546 181.655Z" fill="#DDAA72"/>
<path d="M131.725 216.606C131.347 216.853 130.917 217.009 130.469 217.062C130.021 217.115 129.566 217.063 129.141 216.91C128.717 216.757 128.333 216.507 128.021 216.181C127.71 215.854 127.478 215.46 127.345 215.028C126.693 212.903 126.941 207.369 127.996 205.251C128.329 204.599 128.713 203.856 129.131 203.002C129 203.419 128.903 203.823 128.811 204.215C128.309 206.509 128.994 212.147 129.62 214.266C129.748 214.8 130.008 215.294 130.376 215.702C130.743 216.111 131.207 216.421 131.725 216.606Z" fill="url(#paint8_linear)"/>
<path d="M98.3255 285.862C98.3255 285.862 101.154 288.299 107.738 286.918C107.738 286.918 112.587 263.198 113.454 258.524C114.321 253.851 116.192 236.102 116.192 236.102C116.192 236.102 126.347 256.654 126.621 263.002C126.888 269.827 132.585 285.725 134.071 291.389C134.071 291.389 140.492 292.093 143.784 288.13C143.784 288.13 139.612 263.543 138.921 256.784C138.23 250.025 128.687 214.181 127.299 209.683C125.911 205.186 102.764 206.046 102.764 206.046C99.9119 211.164 98.7527 217.053 99.4532 222.87C100.392 229.942 101.337 241.772 100.998 250.52C100.822 254.978 98.697 262.155 98.3516 267.695C98.0061 273.236 98.3255 285.862 98.3255 285.862Z" fill="url(#paint9_linear)"/>
<path d="M108.911 146.972C108.911 146.972 110.124 153.548 108.044 158.228C105.965 162.909 117.919 159.095 117.919 159.095C117.919 159.095 116.016 151.476 117.919 146.972C119.823 142.467 108.911 146.972 108.911 146.972Z" fill="url(#paint10_linear)"/>
<path d="M112.17 144.364C112.17 144.364 115.67 149.735 120.931 149.318C122.234 149.214 123.662 146.287 124.072 142.754C124.072 142.754 125.702 142.617 126.237 141.803C126.647 141.151 124.698 139.88 123.727 137.038C123.727 137.038 124.503 132.853 124.138 129.966C123.74 126.869 119.308 127.684 115.586 131.921C111.864 136.158 111.232 141.913 112.17 144.364Z" fill="#DDAA72"/>
<path d="M122.097 134.502C122.097 134.502 121.811 138.811 119.386 141.887C118.841 142.572 118.159 143.134 117.383 143.537C116.607 143.94 115.755 144.175 114.882 144.227C114.882 144.227 113.793 147.858 110.423 148.79C106.916 149.781 104.622 146.711 104.622 146.711C104.622 146.711 99.8768 146.574 97.1783 142.8C95.4966 140.46 94.232 134.404 97.6085 131.458C97.6085 131.458 96.5721 126.048 100.216 122.496C103.39 119.4 108.689 118.787 111.362 121.303C111.362 121.303 116.837 118.989 121.041 120.462C123.688 121.388 126.973 125.396 126.191 129.509C125.974 130.615 125.487 131.65 124.773 132.521C124.058 133.392 123.139 134.073 122.097 134.502Z" fill="#FFD180"/>
<path d="M136.861 296.61C136.861 296.61 134.587 303.031 136.294 304.81C138.158 306.766 142.545 306.7 145.087 305.547C146.658 304.73 148.384 304.257 150.152 304.158C152.107 303.93 153.959 303.35 155.002 301.968C155.497 301.316 156.748 299.628 152.551 298.214C150.295 297.451 145.752 295.215 143.901 294.303C143.927 294.44 143.924 294.582 143.893 294.718C143.862 294.855 143.803 294.983 143.72 295.096C143.636 295.208 143.531 295.303 143.409 295.373C143.288 295.442 143.154 295.487 143.015 295.502C141.633 295.672 137.93 293.507 136.861 296.61Z" fill="#6E63C5"/>
<path d="M98.7753 290.946C97.7063 291.474 95.7704 297.888 96.5787 300.502C97.3869 303.115 103.586 302.894 105.352 302.314C107.119 301.733 110.808 302.405 113.552 302.007C115.846 301.675 117.88 300.645 118.864 299.146C120.611 296.467 114.523 295.039 111.949 293.931C110.124 293.096 108.378 292.097 106.734 290.946C105.235 289.994 103.162 292.439 101.702 292.439C100.242 292.439 100.274 290.196 98.7753 290.946Z" fill="#6E63C5"/>
<path d="M135.636 182.548C136.985 183.852 139.612 186.166 140.133 186.589C140.655 187.013 139.358 186.993 138.4 187.117C135.792 185.018 132.533 181.655 132.533 181.655L139.208 173.833C139.208 173.833 139.925 174.7 140.922 175.958C140.251 177.275 138.634 180.462 135.636 182.548Z" fill="url(#paint11_linear)"/>
<path opacity="0.12" d="M127.273 209.664C125.891 205.16 102.738 206.027 102.738 206.027C101.917 207.457 101.244 208.969 100.731 210.537C99.3589 214.487 98.9129 218.7 99.4272 222.85C100.366 229.922 101.311 241.753 100.972 250.5C100.796 254.959 98.6776 262.135 98.3191 267.676C97.9606 273.216 98.3191 285.862 98.3191 285.862C98.7467 286.185 99.2216 286.44 99.727 286.618C99.7596 283.359 99.8899 272.369 100.183 267.676C100.529 262.135 102.654 254.959 102.791 250.5C103.129 241.785 102.191 229.922 101.252 222.85C100.778 219.09 101.1 215.273 102.197 211.645C104.929 212.786 110.671 213.536 114.282 213.562C116.616 213.562 125.018 213.562 127.768 211.476C127.573 210.668 127.397 210.048 127.273 209.664Z" fill="#900229"/>
<path d="M143.758 288.11C140.863 291.604 135.564 291.493 134.313 291.409C136.483 291.285 139.86 290.659 141.965 288.11C141.965 288.11 137.793 263.517 137.102 256.771C136.411 250.025 126.869 214.168 125.487 209.664C124.529 206.561 113.278 206.007 106.349 205.968C112.907 205.922 126.237 206.274 127.279 209.664C128.661 214.168 138.197 250.011 138.888 256.771C139.579 263.53 143.758 288.11 143.758 288.11Z" fill="#F08CA6"/>
<path d="M97.4717 212.532C97.4738 213.131 97.598 213.723 97.8367 214.272C96.6699 214.083 96.1289 212.74 96.0768 211.398C95.966 208.829 99.0556 204.084 99.0556 204.084C96.2789 201.477 81.2087 193.231 81.2087 187.789C81.2087 182.626 87.7856 174.472 87.7856 174.472C87.7856 174.472 96.344 177.412 94.9035 180.267C94.497 181.064 94.0443 181.836 93.5477 182.581C91.5336 181.655 88.62 180.012 86.7949 177.601C84.9893 180.41 82.9426 184.217 82.9361 187.091C82.9361 192.501 97.4717 201.125 100.248 203.719C100.248 203.752 97.3739 209.957 97.4717 212.532Z" fill="url(#paint12_linear)"/>
<path d="M100.437 209.664C105.971 211.565 111.804 212.448 117.652 212.271C124.411 212.089 127.781 210.967 127.781 210.967C127.781 210.967 127.266 199.626 127.781 195.643C128.296 191.66 129.672 179.836 129.672 179.836C129.672 179.836 132.501 182.444 133.543 182.796C134.586 183.148 139.775 178.292 140.642 175.176C140.642 175.176 132.709 163.111 128.961 161.09C125.787 159.382 114.556 156.097 108.403 156.527C106.154 156.677 98.1431 159.454 95.7183 161.533C93.2935 163.613 86.2082 175.736 86.2082 175.736C86.2082 175.736 91.4228 181.453 94.8644 182.144L98.5146 177.307C98.5146 177.307 102.426 189.04 103.019 193.935C103.931 201.203 100.437 209.664 100.437 209.664Z" fill="url(#paint13_linear)"/>
<path d="M140.133 176.453C138.523 179.452 134.469 183.089 133.569 182.789C132.527 182.444 129.698 179.83 129.698 179.83L128.303 178.598C128.303 178.598 125.943 192.045 125.695 197.129C125.552 200.251 124.855 208.21 125.044 211.58C122.606 211.987 120.142 212.216 117.672 212.265C111.823 212.441 105.991 211.557 100.457 209.657C100.457 209.657 103.931 201.184 103.064 193.896C102.471 189.034 98.5602 177.275 98.5602 177.275C97.6476 177.066 95.7769 178.859 93.4629 181.59C90.2038 180.006 86.2473 175.723 86.2473 175.723C86.2473 175.723 93.3326 163.6 95.7639 161.52C98.1952 159.441 106.193 156.664 108.448 156.514H109.041C118.754 156.514 125.48 160.875 127.944 162.211C131.145 163.919 138.158 173.644 140.133 176.453Z" fill="#6E63C5"/>
<path d="M95.7443 161.501C97.5564 159.949 102.484 158.007 105.795 157.068C102.614 158.411 98.9839 160.275 97.5564 161.501C95.7639 163.039 90.1582 172.178 87.3423 176.858C86.6514 176.206 86.2277 175.704 86.2277 175.704C86.2277 175.704 93.313 163.58 95.7443 161.501Z" fill="#5B50B3"/>
<path d="M104.915 194.444C105.626 200.31 103.964 207.813 103.279 210.55C101.48 210.061 100.457 209.664 100.457 209.664C100.457 209.664 103.931 201.19 103.064 193.903C102.53 189.516 99.2902 179.51 98.658 177.607C98.658 177.607 99.0947 174.557 99.6161 175.443C100.138 176.33 104.348 189.575 104.915 194.444Z" fill="#5B50B3"/>
<path d="M135.329 181.929C134.528 182.541 133.869 182.887 133.57 182.789C132.566 182.457 128.472 178.754 128.303 178.598C128.264 177.092 127.834 175.208 128.564 175.912C129.294 176.616 133.68 180.912 135.329 181.929Z" fill="#5B50B3"/>
<path d="M114.328 235.619C114.328 235.619 114.98 236.923 115.886 238.911C115.319 244.126 114.106 255.004 113.454 258.518C112.587 263.191 107.738 286.905 107.738 286.905C106.182 287.255 104.585 287.391 102.993 287.309C103.986 287.248 104.973 287.113 105.945 286.905C105.945 286.905 110.795 263.191 111.662 258.518C112.529 253.844 114.328 235.619 114.328 235.619Z" fill="#F08CA6"/>
<path opacity="0.12" d="M136.144 291.409C135.443 291.465 134.739 291.465 134.039 291.409C132.566 285.744 126.869 269.846 126.601 263.022C126.347 256.673 116.172 236.121 116.172 236.121C116.172 236.121 115.09 232.399 114.869 230.874C114.647 229.349 128.205 256.654 128.466 262.996C128.726 269.82 134.43 285.718 135.909 291.383L136.144 291.409Z" fill="#900229"/>
<path opacity="0.31" d="M115.143 231.493C114.901 230.692 115.032 229.955 114.113 229.988C112.32 230.046 111.388 229.603 110.032 229.225C109.165 228.984 110.234 230.724 111.277 231.721C112.796 233.181 114.817 237.079 115.886 238.891C115.99 237.881 116.12 236.779 116.159 236.388C116.14 236.271 115.612 233.071 115.143 231.493Z" fill="#900229"/>
<path d="M7.76152 583.125C7.76152 583.125 -21.9941 405.523 64.5873 343.437C136.581 291.819 273.17 301.069 347.908 284.734C415.306 269.99 456.293 222.928 458.594 202.07C461.546 175.241 447.747 130.435 413.52 110.287C352.106 74.1306 289.14 81.4049 175.768 66.4391C70.8252 52.5879 7.74847 2.01956 7.74847 2.01956" stroke="#7FE4DC" stroke-width="4" stroke-miterlimit="10"/>
<path d="M342.667 520.771C355.609 520.771 366.1 518.679 366.1 516.098C366.1 513.517 355.609 511.424 342.667 511.424C329.726 511.424 319.234 513.517 319.234 516.098C319.234 518.679 329.726 520.771 342.667 520.771Z" fill="url(#paint14_radial)"/>
<path d="M386.691 513.68C399.633 513.68 410.124 511.587 410.124 509.006C410.124 506.425 399.633 504.333 386.691 504.333C373.75 504.333 363.258 506.425 363.258 509.006C363.258 511.587 373.75 513.68 386.691 513.68Z" fill="url(#paint15_radial)"/>
<path d="M456.638 403.515C454.031 417.627 449.429 432.684 441.607 446.021C434.907 457.447 425.82 467.622 413.54 474.857C378.785 495.318 343.528 501.869 298.924 506.412C281.813 508.152 263.334 509.606 242.971 511.424L241.211 511.574C221.585 513.347 200.218 515.485 176.681 518.581L175.788 518.699C138.416 523.602 101.936 533.822 67.4553 549.047C29.0435 566.06 7.76152 583.125 7.76152 583.125C7.76152 583.125 -21.9941 405.516 64.5873 343.444C120.07 303.682 213.783 299.459 288.162 292.601C302.424 291.298 315.975 289.87 328.405 288.084C332.193 287.543 335.882 286.97 339.447 286.344C342.348 285.842 345.177 285.314 347.921 284.747C434.718 266.933 459.454 203.765 459.454 203.765V351.402C460.723 368.822 459.777 386.333 456.638 403.515Z" fill="url(#paint16_linear)"/>
<path d="M292.249 350.881C292.471 349.414 290.293 343.835 289.935 340.165C289.576 336.495 292.692 328.432 291.688 322.742C290.685 317.051 285.711 312.26 281.311 313.192C276.912 314.125 275.875 314.809 275.875 314.809C275.875 314.809 272.616 312.997 269.748 316.517C266.88 320.037 266 328.615 266.561 334.976C267.121 341.338 263.81 346.207 263.36 349.936C262.91 353.664 262.259 357.608 264.827 360.502C267.395 363.396 279.167 365.299 283.99 363.552C288.162 362.073 291.349 356.858 292.249 350.881Z" fill="#7CC8F6"/>
<path d="M274.096 332.565C274.096 332.565 275.256 339.637 274.793 342.753C274.542 344.75 273.554 346.582 272.023 347.889C272.023 347.889 275.171 351.624 277.817 351.578C282.967 351.487 283.593 347.107 283.593 347.107C283.593 347.107 281.435 346.038 280.888 344.337C280.34 342.635 280.888 338.177 280.888 338.177L274.096 332.565Z" fill="#7CC8F6"/>
<path d="M287.23 322.155C287.23 322.155 288.423 327.148 288.305 330.355C288.169 334.266 285.842 339.624 283.293 340.967C280.744 342.309 277.192 337.929 275.471 336.404C273.379 334.553 271.404 330.974 271.358 327.93C271.306 324.11 272.72 318.088 277.224 317.351C281.644 316.634 285.626 317.931 287.23 322.155Z" fill="#7CC8F6"/>
<path d="M283.893 334.637C284.733 334.546 285.848 334.155 285.802 333.288C285.763 332.741 283.078 329.86 283.156 328.758C283.152 327.139 282.995 325.524 282.687 323.935C282.517 323.042 281.383 317.736 280.731 316.986C279.512 317.045 277.511 316.764 274.559 317.716C271.149 318.818 270.283 324.808 270.511 328.797C270.804 333.699 274.35 336.449 274.884 337.004C276.768 338.959 280.308 342.218 283.358 340.973C283.738 338.883 283.917 336.762 283.893 334.637Z" fill="#7CC8F6"/>
<path d="M266.971 390.492C266.137 391.346 261.959 398.718 260.89 406.892C259.997 413.729 260.988 434.268 260.499 439.92C259.964 445.995 257.976 453.269 257.702 462.349C257.552 466.683 257.829 471.021 258.53 475.3C258.53 475.3 261.972 476.904 265.192 475.646C265.192 475.646 267.89 466.325 268.855 460.159C269.917 453.341 269.233 447.207 270.393 442.442C271.228 439.007 277.016 416.206 277.746 412.165C277.746 412.165 283.527 434.894 284.805 440.884C286.083 446.874 284.538 451.672 286.956 460.726C289.407 469.89 290.802 473.391 290.802 473.391C290.802 473.391 296.016 473.958 296.955 472.159C296.955 472.159 297.059 455.348 295.964 447.898C295.13 442.221 294.719 423.161 294.172 417.119C292.972 403.88 291.154 395.72 288.755 391.946C287.165 389.449 266.971 390.492 266.971 390.492Z" fill="#7CC8F6"/>
<path d="M259.749 360.71C259.749 360.71 258.119 367.418 257.109 371.654C256.099 375.891 254.554 380.069 253.928 383.583C253.302 387.096 254.991 395.4 254.15 398.412C253.309 401.423 250.376 406.651 252.957 408.906C255.538 411.161 258.256 407.681 258.517 403.841C258.778 400.002 257.911 398.764 258.745 395.752C259.58 392.741 261.88 385.649 261.9 382.175C261.92 378.701 262.467 377.71 263.523 375.383C264.927 371.892 266.075 368.304 266.958 364.647C267.343 362.627 259.749 360.71 259.749 360.71Z" fill="#7CC8F6"/>
<path d="M296.812 361.942C296.942 363.037 297.757 365.638 297.842 368.584C297.969 371.52 298.406 374.435 299.145 377.28C300.266 381.256 300.318 383.869 300.142 388.165C299.966 392.46 299.113 395.928 299.986 397.779C300.859 399.631 303.565 406.103 302.163 408.45C300.762 410.796 296.505 409.532 296.447 405.256C296.388 400.98 297.157 398.737 296.505 396.743C295.854 394.748 293.318 384.619 292.999 381.575C292.614 377.633 292.005 373.715 291.173 369.842C290.176 365.397 290.704 362.933 290.704 362.933L296.812 361.942Z" fill="#7CC8F6"/>
<path d="M283.528 346.122C283.528 346.122 290.046 348.371 292.392 350.627C294.739 352.882 297.607 362.177 297.607 362.177C297.607 362.177 293.435 363.513 291.382 364.002C291.781 365.109 291.862 366.306 291.617 367.457C291.141 368.995 289.4 371.309 287.83 371.648C287.83 371.648 288.149 379.059 288.566 382.787C288.833 385.199 290.58 393.758 290.952 394.083C291.323 394.409 285.978 396.437 279.076 396.391C273.489 396.391 264.977 394.383 264.69 393.588C264.403 392.793 268.262 385.642 269.292 381.471C270.517 376.517 269.435 369.881 268.184 365.104C268.184 365.104 267.499 366.075 267.089 366.57C265.416 366.215 263.769 365.744 262.161 365.162C260.679 364.54 259.299 363.698 258.067 362.666C258.067 362.666 261.47 351.441 263.51 349.101C265.55 346.761 272.929 345.803 272.929 345.803C272.929 345.803 274.884 349.831 278.6 349.812C282.315 349.792 283.528 346.122 283.528 346.122Z" fill="#7CC8F6"/>
<path d="M277.915 318.185C279.004 319.339 281.096 322.266 284.564 324.371C286.688 325.706 288.356 327.654 289.348 329.957C289.348 329.957 290.072 325.87 289.759 323.224C289.446 320.578 287.23 316.465 284.029 315.402C280.829 314.34 277.14 315.709 277.14 315.709C277.14 315.709 276.429 316.588 277.915 318.185Z" fill="#7CC8F6"/>
<path d="M272.616 337.206C272.616 337.206 273.6 333.516 275.034 329.279C276.468 325.043 278.254 320.297 277.524 317.716C276.794 315.135 275.719 315.552 274.461 315.832C272.955 316.224 271.607 317.071 270.6 318.257C269.593 319.444 268.977 320.912 268.836 322.461C268.216 327.311 269.859 332.173 272.616 337.206Z" fill="#7CC8F6"/>
<path d="M257.728 479.198C256.627 480.502 254.313 483.037 254.163 484.067C253.902 485.795 256.06 486.909 259.417 487.444C262.774 487.978 264.892 488.226 265.798 487.053C267.154 485.293 264.977 482.49 264.136 480.965C262.845 478.67 261.02 475.32 257.728 479.198Z" fill="#7CC8F6"/>
<path d="M292.725 477.041C292.725 477.041 291.421 481.265 292.418 482.796C293.07 483.82 294.374 483.852 295.417 484.269C296.799 484.804 298.089 487.072 300.866 487.118C303.643 487.164 306.811 485.632 306.53 483.95C306.25 482.268 304.106 480.919 302.144 479.329C300.475 477.979 297.855 475.274 296.707 475.418C295.56 475.561 295 476.865 294.002 477.51C293.898 477.604 293.771 477.668 293.633 477.694C293.496 477.721 293.353 477.709 293.222 477.661C293.09 477.613 292.975 477.529 292.887 477.42C292.799 477.311 292.743 477.18 292.725 477.041Z" fill="#7CC8F6"/>
<path d="M258.752 473.423C258.752 473.423 259.143 477.334 258.791 479.009C258.439 480.684 262.702 480.137 262.702 480.137C262.702 480.137 263.399 475.19 264.103 473.619C264.807 472.048 258.752 473.423 258.752 473.423Z" fill="#7CC8F6"/>
<path d="M291.486 471.944C291.486 471.944 292.894 476.806 292.907 478.657C292.92 480.508 297.059 476.754 297.059 476.754C296.472 474.995 296.344 473.114 296.688 471.292C297.287 468.521 291.486 471.944 291.486 471.944Z" fill="#7CC8F6"/>
<path opacity="0.44" d="M280.105 489.66C330.029 489.66 370.5 449.189 370.5 399.265C370.5 349.342 330.029 308.871 280.105 308.871C230.182 308.871 189.711 349.342 189.711 399.265C189.711 449.189 230.182 489.66 280.105 489.66Z" stroke="white" stroke-width="2" stroke-miterlimit="10"/>
<path d="M186.132 362.796L182.788 314.672L230.919 311.328" stroke="#F08CA6" stroke-width="3" stroke-miterlimit="10"/>
<path d="M243.59 493.551L195.46 496.895L192.116 448.765" stroke="#F08CA6" stroke-width="3" stroke-miterlimit="10"/>
<path d="M316.888 305.345L365.012 302.001L368.356 350.125" stroke="#F08CA6" stroke-width="3" stroke-miterlimit="10"/>
<path d="M374.339 436.093L377.683 484.224L329.559 487.568" stroke="#F08CA6" stroke-width="3" stroke-miterlimit="10"/>
<path d="M358.278 419.433H357.672C357.674 419.418 357.674 419.402 357.672 419.387C357.873 419.413 358.076 419.428 358.278 419.433Z" fill="#7FE4DC"/>
<path opacity="0.42" d="M231.199 343.743C239.187 343.743 245.663 337.268 245.663 329.279C245.663 321.291 239.187 314.816 231.199 314.816C223.211 314.816 216.735 321.291 216.735 329.279C216.735 337.268 223.211 343.743 231.199 343.743Z" fill="#7CC8F6"/>
<path d="M231.656 343.743C239.644 343.743 246.119 337.268 246.119 329.279C246.119 321.291 239.644 314.816 231.656 314.816C223.667 314.816 217.192 321.291 217.192 329.279C217.192 337.268 223.667 343.743 231.656 343.743Z" stroke="white" stroke-width="0.75" stroke-miterlimit="10"/>
<path opacity="0.42" d="M327.376 367.072C335.364 367.072 341.839 360.596 341.839 352.608C341.839 344.62 335.364 338.144 327.376 338.144C319.387 338.144 312.912 344.62 312.912 352.608C312.912 360.596 319.387 367.072 327.376 367.072Z" fill="#7CC8F6"/>
<path d="M327.656 367.072C335.644 367.072 342.12 360.596 342.12 352.608C342.12 344.62 335.644 338.144 327.656 338.144C319.667 338.144 313.192 344.62 313.192 352.608C313.192 360.596 319.667 367.072 327.656 367.072Z" stroke="white" stroke-width="0.75" stroke-miterlimit="10"/>
<path opacity="0.42" d="M328.204 436.113C336.192 436.113 342.667 429.637 342.667 421.649C342.667 413.661 336.192 407.185 328.204 407.185C320.215 407.185 313.74 413.661 313.74 421.649C313.74 429.637 320.215 436.113 328.204 436.113Z" fill="#7CC8F6"/>
<path d="M327.969 436.113C335.957 436.113 342.433 429.637 342.433 421.649C342.433 413.661 335.957 407.185 327.969 407.185C319.98 407.185 313.505 413.661 313.505 421.649C313.505 429.637 319.98 436.113 327.969 436.113Z" stroke="white" stroke-width="0.75" stroke-miterlimit="10"/>
<path d="M334.213 354.772L327.376 361.453L320.538 354.772C314.854 349.225 323.047 341.286 327.376 349.121C331.71 341.286 339.904 349.225 334.213 354.772Z" stroke="white" stroke-width="0.75" stroke-miterlimit="10"/>
<path d="M316.842 354.283H324.318L325.185 355.065L326.372 353.469L327.506 355.065L328.862 349.955L329.54 357.49L330.987 352.719L331.834 354.844L332.844 353.723H337.798" stroke="white" stroke-width="0.75" stroke-miterlimit="10"/>
<path d="M333.47 419.557V419.7C333.216 421.004 332.479 421.89 331.925 423.05C331.876 423.141 331.857 423.246 331.872 423.348C331.888 423.451 331.936 423.545 332.01 423.618C332.322 423.981 332.497 424.442 332.505 424.921C332.549 426.285 332.164 427.627 331.404 428.76C331.136 429.191 330.876 429.634 330.576 430.064C330.464 430.228 330.386 430.413 330.347 430.608C330.308 430.803 330.308 431.004 330.348 431.198C330.435 431.667 330.476 432.143 330.472 432.619C330.471 432.73 330.447 432.839 330.4 432.939C330.335 433.082 330.256 433.108 330.126 433.023C329.742 432.641 329.233 432.41 328.692 432.371C328.288 432.424 327.434 433.499 327.304 432.867C327.268 432.518 327.268 432.166 327.304 431.817C327.294 431.642 327.294 431.465 327.304 431.289C327.337 430.831 327.187 430.379 326.887 430.031C326.194 429.162 325.66 428.178 325.309 427.124C324.986 426.167 324.986 425.129 325.309 424.172C325.436 423.852 325.607 423.551 325.818 423.279L325.909 423.142C325.951 423.087 325.98 423.023 325.995 422.956C326.011 422.889 326.012 422.819 325.998 422.751C325.985 422.683 325.957 422.619 325.917 422.563C325.877 422.507 325.825 422.46 325.765 422.425C325.409 422.144 325.101 421.807 324.853 421.427C324.247 420.411 324.449 419.244 324.142 418.136C324.066 417.857 323.913 417.606 323.699 417.412C323.345 417.124 322.94 416.903 322.506 416.76C321.691 416.463 320.825 416.328 319.958 416.363C319.525 416.369 319.098 416.46 318.7 416.63C318.365 416.769 318.078 417.001 317.874 417.3C317.669 417.598 317.555 417.95 317.546 418.312C317.556 418.537 317.609 418.758 317.702 418.964C317.787 419.146 317.891 419.172 318.067 419.081C318.412 418.9 318.767 418.739 319.13 418.598C319.538 418.412 319.986 418.329 320.434 418.357C320.61 418.357 320.805 418.357 320.896 418.592C320.636 418.592 320.368 418.592 320.114 418.592C319.661 418.615 319.23 418.795 318.895 419.1C318.68 419.323 318.511 419.587 318.399 419.875C318.287 420.164 318.234 420.472 318.243 420.782C318.231 421.162 318.275 421.542 318.374 421.91C318.547 422.746 318.956 423.515 319.554 424.126C319.68 424.212 319.8 424.308 319.912 424.413C319.518 424.318 319.144 424.157 318.804 423.937C318.105 423.562 317.541 422.976 317.194 422.262C316.96 421.752 316.816 421.205 316.77 420.645C316.77 420.339 316.731 419.993 316.705 419.72C316.662 419.483 316.563 419.26 316.418 419.068C316.258 418.791 316.16 418.483 316.131 418.164C316.102 417.846 316.142 417.525 316.249 417.223C316.52 416.432 317.079 415.772 317.813 415.372C318.637 414.855 319.609 414.626 320.577 414.72C321.184 414.78 321.78 414.92 322.35 415.137C322.644 415.255 322.954 415.327 323.269 415.352C323.695 415.371 324.113 415.232 324.442 414.961C325.112 414.422 325.88 414.017 326.704 413.769C327.284 413.599 327.881 413.489 328.484 413.443C329.541 413.365 330.604 413.494 331.612 413.821C332.278 414.039 332.897 414.379 333.437 414.824C333.77 415.143 334.182 415.368 334.63 415.476C334.991 415.535 335.358 415.535 335.719 415.476C336.371 415.372 337.022 415.222 337.674 415.137C338.251 415.026 338.848 415.067 339.404 415.258C339.96 415.449 340.456 415.783 340.842 416.226C341.082 416.486 341.261 416.797 341.365 417.135C341.469 417.474 341.495 417.831 341.442 418.181C341.388 418.804 341.163 419.4 340.79 419.902C340.764 419.931 340.74 419.961 340.718 419.993C340.589 420.12 340.51 420.289 340.497 420.469C340.457 420.834 340.353 421.189 340.19 421.519C339.993 422.085 339.716 422.62 339.369 423.109C338.963 423.603 338.47 424.018 337.915 424.335C337.885 424.34 337.854 424.34 337.824 424.335C337.863 424.204 337.987 424.146 338.059 424.041C338.488 423.469 338.801 422.818 338.978 422.125C339.153 421.535 339.193 420.914 339.095 420.306C339.029 419.865 338.805 419.464 338.464 419.176C338.123 418.888 337.69 418.734 337.244 418.742H336.592C336.753 418.633 336.946 418.581 337.14 418.592C337.904 418.559 338.66 418.756 339.31 419.159C339.506 419.27 339.558 419.27 339.727 419.113C339.889 418.98 340.01 418.805 340.078 418.607C340.146 418.409 340.158 418.196 340.112 417.992C340.049 417.609 339.877 417.251 339.617 416.962C339.484 416.836 339.328 416.738 339.156 416.674C338.985 416.61 338.802 416.582 338.619 416.591C338.184 416.576 337.748 416.596 337.316 416.65C336.517 416.741 335.735 416.938 334.989 417.236C334.623 417.351 334.29 417.553 334.017 417.823C333.68 418.34 333.491 418.94 333.47 419.557Z" stroke="white" stroke-width="0.5" stroke-miterlimit="10"/>
<path d="M320.101 424.439H320.141H320.101Z" stroke="white" stroke-width="0.5" stroke-miterlimit="10"/>
<path d="M323.263 416.245C323.652 416.198 324.044 416.183 324.436 416.2C324.69 416.216 324.944 416.216 325.198 416.2C325.555 416.105 325.902 415.976 326.235 415.815C327.102 415.404 328.046 415.182 329.005 415.163C329.848 415.163 330.681 415.334 331.456 415.665C331.756 415.789 332.049 415.933 332.349 416.063C332.386 416.07 332.423 416.07 332.46 416.063C332.894 416.089 333.329 416.089 333.763 416.063C333.874 416.056 333.985 416.056 334.096 416.063C334.096 416.063 334.167 416.063 334.167 416.115C334.167 416.167 334.167 416.154 334.109 416.161C333.992 416.211 333.872 416.254 333.75 416.291C332.836 416.546 331.975 416.963 331.208 417.523C330.763 417.824 330.4 418.231 330.153 418.708C329.906 419.185 329.782 419.717 329.794 420.254C329.794 420.717 330.035 421.923 329.794 422.516C329.637 422.946 329.201 423.337 329.103 423.663C329.075 423.721 329.06 423.784 329.056 423.849C329.053 423.913 329.063 423.977 329.085 424.038C329.107 424.098 329.14 424.154 329.183 424.202C329.227 424.249 329.279 424.288 329.338 424.315C329.607 424.49 329.935 424.553 330.251 424.489C330.566 424.426 330.844 424.242 331.026 423.976C331.044 423.945 331.066 423.917 331.091 423.891C331.091 423.891 331.13 423.839 331.169 423.846C331.208 423.852 331.221 423.904 331.228 423.937C331.257 424.107 331.24 424.282 331.18 424.443C331.119 424.605 331.016 424.747 330.882 424.856C330.738 424.971 330.575 425.062 330.4 425.123C330.27 425.169 330.263 425.984 330.204 426.186C330.128 426.738 330.111 427.298 330.152 427.854C330.152 428.239 330.028 428.571 330.028 428.969C330.028 429.477 329.885 429.966 329.852 430.475C329.733 431.03 329.718 431.602 329.807 432.163C329.807 432.235 329.872 432.326 329.807 432.378C329.742 432.43 329.65 432.378 329.572 432.345C329.386 432.249 329.189 432.174 328.986 432.124C328.763 432.089 328.535 432.126 328.334 432.228L328.099 432.326C327.956 432.385 327.93 432.358 327.923 432.202C327.935 432.081 327.963 431.963 328.008 431.85C328.013 431.475 327.96 431.101 327.851 430.742C327.774 430.221 327.659 429.707 327.506 429.204C327.332 428.517 327.236 427.813 327.219 427.105C327.214 426.781 327.179 426.458 327.115 426.14C327.037 425.847 326.782 425.612 327.024 425.312C327.102 425.214 327.108 425.143 327.024 425.058C326.752 424.902 326.527 424.677 326.372 424.406C326.301 424.267 326.266 424.113 326.267 423.956C326.267 423.911 326.267 423.865 326.326 423.846C326.385 423.826 326.391 423.878 326.424 423.904C326.58 424.075 326.752 424.23 326.939 424.367C327.107 424.486 327.303 424.561 327.509 424.584C327.714 424.607 327.922 424.577 328.112 424.497C328.255 424.442 328.371 424.334 328.437 424.196C328.504 424.058 328.516 423.901 328.471 423.754C328.184 423.325 327.964 422.855 327.819 422.359C327.754 421.936 328.099 420.626 328.086 420.091C328.1 419.49 327.909 418.901 327.545 418.422C326.457 417.576 325.237 416.916 323.934 416.467L323.432 416.343C323.397 416.351 323.359 416.346 323.328 416.328C323.297 416.31 323.273 416.28 323.263 416.245V416.245Z" stroke="white" stroke-width="0.5" stroke-miterlimit="10"/>
<path d="M336.442 418.722H336.489H336.442Z" stroke="white" stroke-width="0.5" stroke-miterlimit="10"/>
<path d="M336.064 418.722C335.412 418.964 334.337 419.694 334.611 421.688C334.832 423.285 335.986 424.693 337.218 424.295C338.789 423.787 339.219 421.519 339.017 420.541C338.619 418.625 337.166 418.292 336.064 418.722Z" stroke="white" stroke-width="0.5" stroke-miterlimit="10"/>
<path d="M320.101 418.67C319.449 418.859 318.296 419.498 318.413 421.506C318.504 423.116 319.547 424.615 320.818 424.315C322.422 423.937 323.035 421.708 322.911 420.717C322.656 418.781 321.235 418.325 320.101 418.67Z" stroke="white" stroke-width="0.5" stroke-miterlimit="10"/>
<path opacity="0.42" d="M227.471 391.965C235.459 391.965 241.935 385.489 241.935 377.501C241.935 369.513 235.459 363.037 227.471 363.037C219.483 363.037 213.007 369.513 213.007 377.501C213.007 385.489 219.483 391.965 227.471 391.965Z" fill="#7CC8F6"/>
<path d="M227.719 391.965C235.707 391.965 242.182 385.489 242.182 377.501C242.182 369.513 235.707 363.037 227.719 363.037C219.73 363.037 213.255 369.513 213.255 377.501C213.255 385.489 219.73 391.965 227.719 391.965Z" stroke="white" stroke-width="0.75" stroke-miterlimit="10"/>
<path d="M230.15 371.459C229.941 373.186 229.759 381.236 230.28 382.624C230.802 384.013 234.478 386.053 235.606 386.053C236.733 386.053 237.561 380.03 236.414 375.872C234.96 370.637 230.463 368.591 230.15 371.459Z" stroke="white" stroke-width="0.75" stroke-miterlimit="10"/>
<path d="M225.424 371.459C225.626 373.186 225.809 381.236 225.287 382.624C224.766 384.013 221.09 386.053 219.968 386.053C218.847 386.053 218.013 380.03 219.16 375.872C220.575 370.637 225.072 368.591 225.424 371.459Z" stroke="white" stroke-width="0.75" stroke-miterlimit="10"/>
<path d="M226.969 363.2V371.902L222.836 376.041L223.795 376.999L227.647 373.147L231.154 376.654L232.112 375.696L228.325 371.915V363.2" fill="#62A9D0"/>
<path d="M226.969 363.2V371.902L222.836 376.041L223.795 376.999L227.647 373.147L231.154 376.654L232.112 375.696L228.325 371.915V363.2" stroke="white" stroke-width="0.75" stroke-miterlimit="10"/>
<path d="M94.4798 447.135C92.3282 449.393 90.8943 452.237 90.3594 455.31C89.8245 458.382 90.2126 461.544 91.4747 464.396C92.7369 467.247 94.8163 469.661 97.45 471.331C100.084 473.001 103.154 473.852 106.271 473.777C109.389 473.702 112.414 472.705 114.965 470.911C117.516 469.116 119.477 466.606 120.601 463.697C121.725 460.788 121.961 457.611 121.28 454.568C120.598 451.525 119.029 448.752 116.772 446.601C115.273 445.172 113.508 444.053 111.576 443.306C109.645 442.56 107.585 442.202 105.515 442.251C103.445 442.301 101.405 442.758 99.5118 443.596C97.6183 444.434 95.9085 445.636 94.4798 447.135ZM114.289 466.038C112.707 467.699 110.668 468.853 108.43 469.355C106.192 469.857 103.856 469.684 101.716 468.858C99.5765 468.032 97.7299 466.59 96.4098 464.715C95.0897 462.839 94.3554 460.614 94.2998 458.321C94.2442 456.029 94.8697 453.771 96.0974 451.833C97.325 449.896 99.0995 448.366 101.197 447.438C103.294 446.509 105.619 446.223 107.879 446.616C110.138 447.009 112.231 448.063 113.891 449.645C116.11 451.765 117.397 454.678 117.472 457.746C117.546 460.814 116.402 463.787 114.289 466.012V466.038Z" fill="white"/>
<path d="M114.126 464.78C113.963 464.982 113.787 465.178 113.611 465.373C111.657 467.419 108.971 468.606 106.143 468.673C103.315 468.74 100.576 467.682 98.5276 465.732C97.4206 464.678 96.5554 463.397 95.992 461.977L89.9431 462.961C90.8067 465.739 92.3806 468.242 94.509 470.224C96.6375 472.206 99.2467 473.598 102.078 474.262C104.91 474.926 107.866 474.839 110.653 474.009C113.441 473.179 115.964 471.636 117.971 469.532C118.284 469.206 118.571 468.88 118.851 468.528L114.126 464.78Z" fill="#58A9DA"/>
<path d="M90.4841 466.064C89.1006 463.407 88.4252 460.439 88.523 457.445C88.6208 454.451 89.4886 451.533 91.0425 448.972C92.5964 446.411 94.7841 444.294 97.3945 442.825C100.005 441.356 102.95 440.584 105.945 440.584V448.048C103.303 448.051 100.77 449.102 98.9018 450.971C97.0335 452.839 95.9824 455.372 95.9789 458.014C95.9791 459.603 96.3637 461.169 97.1001 462.577L90.4841 466.064Z" fill="#00D2C8"/>
<path opacity="0.27" d="M456.638 403.515C454.031 417.627 449.429 432.684 441.607 446.021L374.202 378.603L241.231 511.574C221.605 513.347 200.238 515.485 176.701 518.581L345.444 349.838L288.162 292.588C302.424 291.285 315.975 289.857 328.405 288.071C332.193 287.53 335.882 286.957 339.447 286.331L456.638 403.515Z" fill="url(#paint17_linear)"/>
<path d="M141.626 439.698C139.067 441.482 137.095 443.984 135.959 446.888C134.823 449.793 134.573 452.969 135.242 456.016C135.912 459.062 137.469 461.841 139.718 464.002C141.967 466.163 144.806 467.609 147.877 468.156C150.947 468.703 154.111 468.327 156.968 467.076C159.825 465.825 162.247 463.755 163.927 461.127C165.607 458.499 166.47 455.433 166.407 452.314C166.344 449.196 165.358 446.167 163.573 443.609C162.389 441.911 160.882 440.463 159.138 439.347C157.394 438.231 155.448 437.47 153.41 437.107C151.372 436.744 149.282 436.786 147.26 437.23C145.238 437.675 143.324 438.513 141.626 439.698ZM157.27 462.153C155.388 463.464 153.159 464.188 150.866 464.233C148.573 464.278 146.318 463.641 144.386 462.404C142.455 461.167 140.934 459.385 140.015 457.283C139.096 455.182 138.822 452.855 139.226 450.597C139.63 448.339 140.694 446.252 142.284 444.599C143.875 442.946 145.92 441.802 148.16 441.312C150.401 440.821 152.737 441.006 154.872 441.843C157.008 442.68 158.847 444.132 160.157 446.014C161.913 448.539 162.593 451.658 162.049 454.684C161.505 457.711 159.781 460.397 157.257 462.153H157.27Z" fill="white"/>
<path d="M147.447 462.818C145.189 462.111 143.231 460.673 141.88 458.731C141.003 457.479 140.409 456.051 140.14 454.546L134.026 454.299C134.35 457.542 135.616 460.62 137.669 463.152C139.721 465.684 142.47 467.559 145.576 468.548C145.954 467.257 147.212 464.272 147.447 462.818Z" fill="#58A9DA"/>
<path d="M133.354 455.609C132.918 452.646 133.253 449.621 134.326 446.825C135.399 444.029 137.175 441.557 139.481 439.647C141.787 437.737 144.547 436.453 147.494 435.92C150.441 435.386 153.475 435.621 156.305 436.602L154.05 443.12C147.981 441.328 142.969 444.632 141.183 449.821C140.651 451.332 140.497 452.949 140.733 454.533L133.354 455.609Z" fill="#00D2C8"/>
<path d="M328.203 360.234C330.849 360.234 332.994 358.089 332.994 355.444C332.994 352.798 330.849 350.653 328.203 350.653C325.557 350.653 323.412 352.798 323.412 355.444C323.412 358.089 325.557 360.234 328.203 360.234Z" stroke="#FF7950" stroke-miterlimit="10"/>
<path d="M328.203 364.061C332.963 364.061 336.82 360.203 336.82 355.443C336.82 350.684 332.963 346.826 328.203 346.826C323.444 346.826 319.586 350.684 319.586 355.443C319.586 360.203 323.444 364.061 328.203 364.061Z" stroke="#FF7950" stroke-miterlimit="10"/>
<path d="M370.337 361.082C370.337 361.082 369.926 369.692 368.773 372.463C367.619 375.233 375.161 373.994 375.161 373.994L377.018 360.508L373.759 358.005L370.337 361.082Z" fill="url(#paint18_linear)"/>
<path d="M367.684 346.129C365.663 350.594 366.641 351.142 365.605 352.387C364.484 353.736 362.998 355.352 362.619 355.724C362.556 355.785 362.511 355.862 362.489 355.947C362.468 356.033 362.47 356.122 362.496 356.206C362.676 356.625 362.955 356.994 363.31 357.281C363.664 357.568 364.082 357.765 364.529 357.855C364.529 357.855 364.529 363.956 366.354 364.797C369.529 366.257 377.931 363.832 379.547 358.012C380.382 354.994 377.644 348.111 377.644 348.111C377.644 348.111 369.711 341.658 367.684 346.129Z" fill="#E1AE72"/>
<path d="M388.621 495.957C389.245 497.559 389.683 499.228 389.924 500.93C390.1 503.081 395.563 501.79 394.943 500.565C394.324 499.34 394.096 496.719 394.129 494.699C394.161 492.678 388.621 495.957 388.621 495.957Z" fill="#E1AE72"/>
<path d="M347.732 501.295C347.732 501.295 348.116 505.043 346.682 508.1C345.92 509.736 348.918 510.922 350 510.16C351.082 509.397 351.076 506.425 352.868 504.209C354.661 501.993 347.732 501.295 347.732 501.295Z" fill="#E1AE72"/>
<path opacity="0.55" d="M459.454 294.935V345.875L298.924 506.412C281.813 508.152 263.334 509.606 242.971 511.424L459.454 294.935Z" fill="url(#paint19_linear)"/>
<path d="M384.403 382.025C384.403 382.025 384.227 388.928 384.103 393.282C383.98 397.636 384.377 402.075 384.103 405.627C383.83 409.18 379.997 416.76 380.023 419.883C380.049 423.005 381.522 428.826 378.439 430.312C375.356 431.798 373.648 427.743 374.398 423.976C375.147 420.208 376.301 419.224 376.282 416.102C376.262 412.98 375.89 405.529 376.77 402.173C377.65 398.816 377.39 397.714 376.972 395.192C376.527 391.455 376.352 387.69 376.451 383.928C376.575 381.901 384.403 382.025 384.403 382.025Z" fill="url(#paint20_linear)"/>
<path d="M356.531 419.433C356.531 419.433 350.613 450.336 349.955 465.875C349.583 474.557 349.863 479.153 349.303 486.564C348.768 493.31 347.289 503.778 347.289 503.778C347.289 503.778 350.294 505.942 353.735 505.793C353.735 505.793 359.139 491.746 360.41 487.398C361.681 483.051 361.159 475.392 361.87 472.713C363.323 467.257 368.023 450.368 368.023 450.368C368.023 450.368 374.215 470.19 376.653 473.351C378.302 475.489 386.196 496.38 387.082 496.889C387.969 497.397 392.812 496.928 394.35 495.8C394.35 495.8 393.992 485.299 392.186 478.201C390.381 471.103 385.668 467.772 384.925 464.122C384.182 460.471 382.135 440.33 381.816 437.671C381.496 435.011 383.569 432.769 383.119 427.822C382.67 422.874 379.013 417.842 379.013 417.842C379.013 417.842 358.428 419.7 356.531 419.433Z" fill="#7FE4DC"/>
<path d="M350.196 379.059C350.196 379.059 345.9 381.054 344.421 382.69C343.722 381.243 342.916 379.851 342.009 378.524C340.054 375.767 334.318 370.703 333.646 368.31C333.085 365.86 332.866 363.344 332.994 360.834C333.066 358.976 331.971 355.711 329.937 354.968C327.904 354.225 325.251 355.828 324.807 358.65C324.416 361.193 326.724 366.14 328.562 368.526C329.611 369.888 333.998 383.615 335.386 386.842C336.996 390.596 339.649 392.982 341.338 393.399C344.017 394.051 352.621 390.101 354.915 388.517C357.209 386.933 350.196 379.059 350.196 379.059Z" fill="#E1AE72"/>
<path d="M388.764 499.607C387.728 499.9 384.671 502.292 382.246 503.426C380.088 504.43 377.207 504.795 376.725 506.51C376.243 508.224 378.407 510.981 382.813 510.551C387.219 510.121 388.731 508.595 391.639 508.758C394.65 508.934 396.201 508.361 396.645 507.077C397.088 505.793 395.895 500.441 394.507 499.333C394.507 499.333 393.855 501.289 392.466 501.041C391.717 500.91 390.654 499.079 388.764 499.607Z" fill="#6E63C5"/>
<path d="M354.921 388.51C352.627 390.094 344.023 394.057 341.344 393.393C339.917 393.041 337.792 391.274 336.208 388.458C337.603 390.375 339.2 391.561 340.347 391.848C343.026 392.5 351.623 388.55 353.924 386.959C354.843 386.307 354.263 384.678 353.24 382.924C354.791 385.154 356.114 387.683 354.921 388.51Z" fill="url(#paint21_linear)"/>
<path opacity="0.39" d="M357.672 419.472C357.424 420.821 351.754 450.681 351.108 465.869C350.743 474.551 351.017 479.14 350.456 486.557C349.981 492.502 348.775 502.299 348.501 504.515C348.084 504.302 347.682 504.062 347.295 503.798C347.295 503.798 348.775 493.33 349.309 486.59C349.896 479.166 349.622 474.577 349.961 465.895C350.613 450.355 356.545 419.452 356.545 419.452C356.92 419.479 357.296 419.486 357.672 419.472Z" fill="#7FE4DC"/>
<path d="M379.026 417.96C375.05 418.305 361.577 419.452 358.278 419.452C363.708 419.244 378.98 417.895 378.98 417.895L379.026 417.96Z" fill="#7FE4DC"/>
<path opacity="0.39" d="M388.054 497.104C387.703 497.111 387.355 497.047 387.03 496.915C386.17 496.4 378.283 475.502 376.601 473.377C375.148 471.487 372.358 463.678 370.344 457.682C370.415 456.521 370.748 455.544 370.852 455.726C372.866 461.84 376.132 471.253 377.755 473.325C379.248 475.235 385.935 492.763 388.054 497.104Z" fill="#7FE4DC"/>
<path opacity="0.18" d="M380.942 421.18C378.687 422.21 366.804 427.17 355.951 422.607C356.31 420.652 356.538 419.452 356.538 419.452C358.428 419.7 378.98 417.895 378.98 417.895C379.71 418.942 380.366 420.04 380.942 421.18Z" fill="#2E1771"/>
<path d="M345.933 507.572C342.876 508.798 339.193 508.778 336.09 509.26C332.297 509.847 331.169 513.087 334.924 515.342C337.433 516.848 341.442 516.691 343.397 516.378C345.353 516.065 347.784 517.623 350.176 516.58C352.132 515.733 352.027 510.205 350.88 508.602C350.88 508.602 349.714 509.488 348.977 509.254C348.24 509.019 347.478 506.959 345.933 507.572Z" fill="#6E63C5"/>
<path d="M376.484 370.546C375.134 371.987 371.106 373.108 369.027 370.774C365.629 370.684 362.265 371.461 359.25 373.03C355.228 375.578 348.69 379.607 348.69 379.607C348.69 379.607 352.008 388.836 353.846 389.951L355.606 389.156C355.606 389.156 355.339 391.861 355.313 392.904C355.287 393.947 356.049 397.186 359.224 397.721C359.804 403.255 359.458 405.054 359.126 408.704C358.819 412.198 355.449 421.486 355.449 421.486C359.21 422.996 363.243 423.711 367.293 423.585C372.892 423.402 379.678 421.232 381.19 419.87C378.949 413.979 378.121 407.646 378.772 401.377C379.189 397.271 382.937 382.09 381.157 375.859C380.848 374.669 380.264 373.569 379.452 372.647C378.64 371.724 377.624 371.005 376.484 370.546Z" fill="#6E63C5"/>
<path d="M359.145 397.681C356.03 397.114 355.274 393.914 355.3 392.878C355.296 392.821 355.296 392.765 355.3 392.708C355.573 393.621 356.773 395.902 359.25 396.032C361.727 396.163 360.338 396.984 359.145 397.681Z" fill="#5B50B3"/>
<path d="M381.177 419.843C380.541 420.339 379.83 420.73 379.071 421.004C377.051 414.92 376.296 408.487 376.855 402.101C377.025 400.406 377.279 396.841 377.963 392.786C373.257 389.86 373.342 385.036 373.27 381.412C373.267 378.216 373.485 375.023 373.922 371.856C374.776 371.791 375.93 370.905 376.529 370.494C377.669 370.952 378.684 371.671 379.494 372.594C380.303 373.517 380.884 374.617 381.19 375.806C382.976 382.031 379.234 397.219 378.804 401.325C378.131 407.599 378.944 413.942 381.177 419.843Z" fill="#5B50B3"/>
<path d="M367.397 343.945C368.092 347.653 369.241 351.261 370.82 354.687C373.518 360.684 375.826 363.389 375.382 366.746C374.939 370.103 374.033 375.872 373.922 378.479C373.668 384.404 375.415 392.46 381.164 392.773C385.036 392.982 388.236 390.316 389.918 384.632C391.13 380.558 390.948 373.453 389.077 368.636C387.206 363.819 389.585 354.857 388.425 349.408C387.597 345.555 384.592 341.253 379.521 341.253C371.628 341.279 367.397 343.945 367.397 343.945Z" fill="url(#paint22_linear)"/>
<path opacity="0.39" d="M370.291 457.447C370.806 456.222 373.27 444.926 373.746 441.882C374.209 438.948 377.005 436.471 375.35 436.902C373.818 437.456 372.449 438.205 370.383 437.938C369.913 440.272 367.997 450.388 367.997 450.388C367.997 450.388 368.988 453.497 370.291 457.447Z" fill="#2E1771"/>
<path opacity="0.18" d="M359.634 472.921C359.315 475.463 359.804 482.796 358.682 487.17C358.031 489.601 353.468 503.055 352.451 505.767C352.869 505.815 353.289 505.83 353.709 505.812C353.709 505.812 359.113 491.765 360.384 487.418C361.655 483.07 361.133 475.411 361.844 472.732C362.998 468.417 366.178 456.945 367.456 452.343C368.681 448.98 370.832 438.981 370.383 437.938C369.405 435.676 360.012 469.929 359.634 472.921Z" fill="#2E1771"/>
<path opacity="0.18" d="M383.139 428.858C382.483 431.262 381.377 433.521 379.88 435.513C378.622 437.195 378.674 438.662 378.941 440.643C379.124 442.005 381.548 464.304 382.995 466.918C383.582 468.007 389.22 474.44 390.387 479.101C391.647 484.822 392.468 490.632 392.844 496.478C393.365 496.34 393.86 496.12 394.311 495.826C394.311 495.826 393.953 485.325 392.147 478.227C390.341 471.129 385.629 467.798 384.886 464.148C384.143 460.498 382.096 440.356 381.777 437.697C381.47 435.239 383.237 433.121 383.139 428.858Z" fill="#2E1771"/>
<path d="M355.593 389.149C357.066 388.211 361.687 385.753 362.489 385.004C363.734 383.85 359.921 384.736 358.135 385.655C356.577 386.438 352.92 387.839 352.399 388.106C352.74 388.812 353.229 389.437 353.833 389.938L355.593 389.143V389.149Z" fill="#5B50B3"/>
<path d="M279.199 397.049L301.831 423.246H313.831" stroke="white" stroke-width="0.75" stroke-miterlimit="10"/>
<path d="M273.672 367.046L262.936 378.101H241.935" stroke="white" stroke-width="0.75" stroke-miterlimit="10"/>
<path d="M233.591 330.635C233.591 330.635 235.782 334.729 230.469 335.198C224.603 335.706 221.135 332.115 221.089 329.625C221.044 327.324 221.826 323.895 227.177 321.803C232.529 319.711 239.758 322.018 240.814 324.665C241.687 326.861 240.729 329.521 237.587 330.433C235.071 331.15 233.591 330.635 233.591 330.635Z" stroke="white" stroke-width="0.75" stroke-miterlimit="10"/>
<path d="M222.524 332.539C222.524 332.539 222.198 335.576 224.173 336.3C224.747 336.55 225.394 336.574 225.985 336.367C226.576 336.161 227.067 335.738 227.36 335.185" stroke="white" stroke-width="0.75" stroke-miterlimit="10"/>
<path d="M224.173 336.3C224.473 338.101 224.473 339.94 224.173 341.742" stroke="white" stroke-width="0.75" stroke-miterlimit="10"/>
<path d="M233.592 330.635C233.592 330.635 231.454 328.334 229.205 328.386" stroke="white" stroke-width="0.75" stroke-miterlimit="10"/>
<path d="M228.299 328.83C228.299 328.83 229.804 328.569 228.846 327.344" stroke="white" stroke-width="0.75" stroke-miterlimit="10"/>
<path d="M235.756 324.782C235.84 325.16 235.866 326.594 235.371 327.083C234.876 327.572 233.807 327.546 233.592 328.08" stroke="white" stroke-width="0.75" stroke-miterlimit="10"/>
<path d="M235.365 327.083C235.365 327.083 236.733 327.233 237.118 327.696" stroke="white" stroke-width="0.75" stroke-miterlimit="10"/>
<path d="M241.12 325.747C240.735 325.35 240.239 325.082 239.697 324.977C239.155 324.872 238.594 324.936 238.089 325.16" stroke="white" stroke-width="0.75" stroke-miterlimit="10"/>
<path d="M225.339 326.874C225.355 326.709 225.405 326.549 225.484 326.404C225.564 326.258 225.672 326.131 225.802 326.028C225.933 325.926 226.083 325.851 226.243 325.808C226.403 325.765 226.57 325.755 226.734 325.779" stroke="white" stroke-width="0.75" stroke-miterlimit="10"/>
<path d="M225.339 322.65C226.639 322.726 227.931 322.898 229.205 323.165C230.58 323.543 231.506 324.469 231.395 325.16C231.284 325.851 231.18 326.053 231.395 326.301" stroke="white" stroke-width="0.75" stroke-miterlimit="10"/>
<path d="M223.827 333.392C223.827 333.392 225.007 332.741 225.17 331.88C225.268 331.372 226.519 330.909 226.93 331.522" stroke="white" stroke-width="0.75" stroke-miterlimit="10"/>
<path d="M223.117 329.944C223.501 329.944 224.792 329.84 224.981 329.201C225.17 328.562 224.459 328.054 224.459 328.054" stroke="white" stroke-width="0.75" stroke-miterlimit="10"/>
<path d="M226.239 329.332C226.065 329.199 225.858 329.117 225.641 329.094C225.424 329.071 225.205 329.108 225.007 329.201" stroke="white" stroke-width="0.75" stroke-miterlimit="10"/>
<path d="M230.352 323.615C230.821 323.414 231.328 323.318 231.838 323.335C232.959 323.439 233.142 324.078 233.142 324.078" stroke="white" stroke-width="0.75" stroke-miterlimit="10"/>
<path d="M225.587 326.222C225.293 325.988 225.079 325.669 224.974 325.308C224.869 324.948 224.878 324.563 225 324.208" stroke="white" stroke-width="0.75" stroke-miterlimit="10"/>
<path d="M222.048 326.301C222.58 326.397 223.127 326.378 223.652 326.247C224.177 326.115 224.668 325.874 225.092 325.538" stroke="white" stroke-width="0.75" stroke-miterlimit="10"/>
<path d="M229.641 331.606C230.037 331.557 230.437 331.658 230.762 331.89C231.087 332.122 231.313 332.467 231.395 332.858" stroke="white" stroke-width="0.75" stroke-miterlimit="10"/>
<path d="M283.593 360.234L289.837 353.723H313.062" stroke="white" stroke-width="0.75" stroke-miterlimit="10"/>
<path d="M245.924 330.185L256.992 330.009L273.985 319.261" stroke="white" stroke-width="0.75" stroke-miterlimit="10"/>
<path opacity="0.62" d="M355.586 394.442C355.409 393.939 355.312 393.411 355.299 392.878C355.299 391.978 355.528 389.86 355.573 389.28L357.203 388.198C357.203 388.198 355.612 393.399 355.586 394.442Z" fill="#8996F1"/>
<path opacity="0.62" d="M360.045 409.31C359.778 412.243 357.385 419.622 356.616 421.916C355.86 421.649 355.436 421.46 355.436 421.46C355.436 421.46 358.8 412.172 359.113 408.678C359.445 405.028 359.765 403.229 359.21 397.701L358.911 397.636C359.224 397.627 359.535 397.592 359.843 397.532C361.205 397.232 360.371 405.66 360.045 409.31Z" fill="#8996F1"/>
<path opacity="0.62" d="M359.21 373.004C361.771 371.668 364.591 370.901 367.476 370.755C364.885 371.305 362.403 372.279 360.13 373.636C356.87 375.689 351.193 379.411 349.101 380.806C348.827 380.076 348.657 379.607 348.657 379.607C348.657 379.607 355.215 375.552 359.21 373.004Z" fill="#8996F1"/>
<path d="M342.485 381.086C343.482 383.126 343.613 385.649 344.01 384.919C344.308 384.214 344.448 383.454 344.421 382.69C343.722 381.243 342.916 379.851 342.009 378.524C341.092 377.321 340.104 376.174 339.05 375.089C339.565 375.898 341.853 379.789 342.485 381.086Z" fill="url(#paint23_linear)"/>
<path opacity="0.37" d="M153.267 365.771L83.1793 372.433C81.1509 372.626 79.6628 374.427 79.8557 376.455L84.4719 425.019C84.6647 427.047 86.4653 428.535 88.4938 428.342L158.581 421.68C160.609 421.487 162.098 419.687 161.905 417.658L157.288 369.095C157.096 367.066 155.295 365.578 153.267 365.771Z" fill="white"/>
<path d="M148.601 372.242L131.262 373.89C130.61 373.952 130.131 374.531 130.193 375.183L131.841 392.521C131.903 393.174 132.482 393.652 133.135 393.59L150.473 391.942C151.125 391.88 151.604 391.301 151.542 390.649L149.894 373.31C149.832 372.658 149.253 372.18 148.601 372.242Z" fill="white"/>
<path d="M407.222 328.648L400.778 329.261C400.359 329.301 400.051 329.673 400.091 330.092L401.819 348.274C401.859 348.694 402.232 349.001 402.651 348.961L409.094 348.349C409.514 348.309 409.821 347.937 409.781 347.518L408.053 329.336C408.013 328.916 407.641 328.609 407.222 328.648Z" fill="white"/>
<path d="M418.574 333.191L411.897 333.826C411.542 333.86 411.282 334.174 411.315 334.529L412.536 347.371C412.57 347.726 412.885 347.986 413.24 347.952L419.917 347.318C420.272 347.284 420.532 346.969 420.498 346.614L419.277 333.772C419.244 333.418 418.929 333.157 418.574 333.191Z" fill="white"/>
<path opacity="0.37" d="M432.64 353.156L401.785 356.089C400.71 356.191 399.922 357.146 400.024 358.221L403.548 395.292C403.65 396.368 404.604 397.156 405.679 397.054L436.534 394.121C437.61 394.019 438.398 393.064 438.296 391.989L434.772 354.918C434.67 353.843 433.716 353.054 432.64 353.156Z" fill="white"/>
<path d="M427.425 318.676L421.28 319.26C420.779 319.308 420.411 319.753 420.458 320.255L422.916 346.113C422.964 346.615 423.409 346.983 423.911 346.936L430.056 346.351C430.558 346.304 430.926 345.858 430.878 345.357L428.42 319.498C428.373 318.996 427.927 318.628 427.425 318.676Z" fill="white"/>
<path d="M208.34 411.474L232.777 410.268" stroke="white" stroke-width="4" stroke-miterlimit="10"/>
<path d="M208.444 416.858L238.474 415.379" stroke="white" stroke-width="2" stroke-miterlimit="10"/>
<path d="M208.444 421.616L238.474 420.137" stroke="white" stroke-width="2" stroke-miterlimit="10"/>
<path d="M90.8297 381.64L124.17 378.472" stroke="white" stroke-width="2" stroke-miterlimit="10"/>
<path d="M91.9507 393.523L125.291 390.349" stroke="white" stroke-width="2" stroke-miterlimit="10"/>
<path d="M92.6287 405.119L151.39 399.533" stroke="white" stroke-width="2" stroke-miterlimit="10"/>
<path d="M94.2647 416.793L153.033 411.207" stroke="white" stroke-width="2" stroke-miterlimit="10"/>
<path d="M403.997 362.431L431.1 359.856" stroke="white" stroke-width="2" stroke-miterlimit="10"/>
<path d="M404.858 368.897L431.954 366.322" stroke="white" stroke-width="2" stroke-miterlimit="10"/>
<path d="M405.562 375.291L428.108 373.147" stroke="white" stroke-width="2" stroke-miterlimit="10"/>
<path d="M406.422 381.758L421.57 380.317" stroke="white" stroke-width="2" stroke-miterlimit="10"/>
<path d="M407.628 388.224L431.954 385.91" stroke="white" stroke-width="2" stroke-miterlimit="10"/>
<path opacity="0.55" d="M328.412 288.071L67.4487 549.047C29.0369 566.06 7.75494 583.125 7.75494 583.125C7.75494 583.125 -21.9942 405.516 64.5872 343.444C130.714 296.037 251.125 299.165 328.412 288.071Z" fill="url(#paint24_linear)"/>
<path d="M270.445 186.087C278.434 186.087 284.909 179.612 284.909 171.623C284.909 163.635 278.434 157.16 270.445 157.16C262.457 157.16 255.982 163.635 255.982 171.623C255.982 179.612 262.457 186.087 270.445 186.087Z" stroke="white" stroke-width="0.75" stroke-miterlimit="10"/>
<defs>
<linearGradient id="paint0_linear" x1="508364" y1="200406" x2="516263" y2="-8937.56" gradientUnits="userSpaceOnUse">
<stop offset="0.04" stop-color="#8996F1" stop-opacity="0.3"/>
<stop offset="1" stop-color="#7FE4DC"/>
</linearGradient>
<radialGradient id="paint1_radial" cx="0" cy="0" r="1" gradientUnits="userSpaceOnUse" gradientTransform="translate(107.784 300.619) scale(31.7241 5.71034)">
<stop stop-color="#001A36"/>
<stop offset="1" stop-color="#062972" stop-opacity="0"/>
</radialGradient>
<radialGradient id="paint2_radial" cx="0" cy="0" r="1" gradientUnits="userSpaceOnUse" gradientTransform="translate(46445.5 1129.91) scale(2605.28 109.117)">
<stop stop-color="#001A36"/>
<stop offset="1" stop-color="#062972" stop-opacity="0"/>
</radialGradient>
<linearGradient id="paint3_linear" x1="186.022" y1="264.743" x2="177.861" y2="73.6286" gradientUnits="userSpaceOnUse">
<stop stop-color="white" stop-opacity="0"/>
<stop offset="1" stop-color="white"/>
</linearGradient>
<linearGradient id="paint4_linear" x1="291432" y1="80862.5" x2="264462" y2="19947.2" gradientUnits="userSpaceOnUse">
<stop stop-color="white" stop-opacity="0"/>
<stop offset="1" stop-color="white"/>
</linearGradient>
<linearGradient id="paint5_linear" x1="337.648" y1="192.762" x2="512.727" y2="50.9648" gradientUnits="userSpaceOnUse">
<stop stop-color="#0D55AA"/>
<stop offset="1" stop-color="#7FE4DC" stop-opacity="0"/>
</linearGradient>
<linearGradient id="paint6_linear" x1="319845" y1="123181" x2="218934" y2="-9686.83" gradientUnits="userSpaceOnUse">
<stop stop-color="#0D55AA"/>
<stop offset="1" stop-color="#7FE4DC" stop-opacity="0"/>
</linearGradient>
<linearGradient id="paint7_linear" x1="210805" y1="29238.2" x2="209175" y2="11110.8" gradientUnits="userSpaceOnUse">
<stop stop-color="#0D55AA"/>
<stop offset="1" stop-color="#7FE4DC" stop-opacity="0"/>
</linearGradient>
<linearGradient id="paint8_linear" x1="134.436" y1="207.408" x2="123.786" y2="213.816" gradientUnits="userSpaceOnUse">
<stop stop-color="#E9B883"/>
<stop offset="1" stop-color="#B78047"/>
</linearGradient>
<linearGradient id="paint9_linear" x1="108.716" y1="153.79" x2="123.264" y2="311.041" gradientUnits="userSpaceOnUse">
<stop stop-color="#F2926F"/>
<stop offset="1" stop-color="#D45D61"/>
</linearGradient>
<linearGradient id="paint10_linear" x1="9816.77" y1="3322.54" x2="9995.32" y2="2875.3" gradientUnits="userSpaceOnUse">
<stop stop-color="#E9B883"/>
<stop offset="1" stop-color="#B78047"/>
</linearGradient>
<linearGradient id="paint11_linear" x1="8424.91" y1="3248.44" x2="8247.27" y2="3297.52" gradientUnits="userSpaceOnUse">
<stop stop-color="#E9B883"/>
<stop offset="1" stop-color="#B78047"/>
</linearGradient>
<linearGradient id="paint12_linear" x1="17729.3" y1="9974.87" x2="16838" y2="10219" gradientUnits="userSpaceOnUse">
<stop stop-color="#E9B883"/>
<stop offset="1" stop-color="#B78047"/>
</linearGradient>
<linearGradient id="paint13_linear" x1="89.8519" y1="199.639" x2="129.339" y2="175.397" gradientUnits="userSpaceOnUse">
<stop stop-color="#8996F1"/>
<stop offset="0.23" stop-color="#87A2EE"/>
<stop offset="0.64" stop-color="#83C3E5"/>
<stop offset="1" stop-color="#7FE4DC"/>
</linearGradient>
<radialGradient id="paint14_radial" cx="0" cy="0" r="1" gradientUnits="userSpaceOnUse" gradientTransform="translate(60945.9 1774.57) scale(2342.36 84.0902)">
<stop stop-color="#001A36"/>
<stop offset="1" stop-color="#062972" stop-opacity="0"/>
</radialGradient>
<radialGradient id="paint15_radial" cx="0" cy="0" r="1" gradientUnits="userSpaceOnUse" gradientTransform="translate(64155.3 1957.6) scale(2285.18 95.7109)">
<stop stop-color="#001A36"/>
<stop offset="1" stop-color="#062972" stop-opacity="0"/>
</radialGradient>
<linearGradient id="paint16_linear" x1="274.272" y1="572.728" x2="191.145" y2="206.274" gradientUnits="userSpaceOnUse">
<stop stop-color="#8996F1" stop-opacity="0.1"/>
<stop offset="1" stop-color="#7FE4DC"/>
</linearGradient>
<linearGradient id="paint17_linear" x1="278625" y1="190511" x2="402191" y2="58600.9" gradientUnits="userSpaceOnUse">
<stop stop-color="#0D55AA"/>
<stop offset="1" stop-color="#7FE4DC" stop-opacity="0"/>
</linearGradient>
<linearGradient id="paint18_linear" x1="11593.1" y1="9029.76" x2="11497.5" y2="8685.86" gradientUnits="userSpaceOnUse">
<stop stop-color="#E9B883"/>
<stop offset="1" stop-color="#B78047"/>
</linearGradient>
<linearGradient id="paint19_linear" x1="293136" y1="146609" x2="275766" y2="109122" gradientUnits="userSpaceOnUse">
<stop stop-color="white" stop-opacity="0"/>
<stop offset="1" stop-color="white"/>
</linearGradient>
<linearGradient id="paint20_linear" x1="14352.9" y1="28919.4" x2="14001.5" y2="28897.7" gradientUnits="userSpaceOnUse">
<stop stop-color="#E9B883"/>
<stop offset="1" stop-color="#B78047"/>
</linearGradient>
<linearGradient id="paint21_linear" x1="25063.8" y1="6043.1" x2="25186.4" y2="6422.83" gradientUnits="userSpaceOnUse">
<stop stop-color="#E9B883"/>
<stop offset="1" stop-color="#B78047"/>
</linearGradient>
<linearGradient id="paint22_linear" x1="31609.6" y1="22672.3" x2="33171.5" y2="29067.9" gradientUnits="userSpaceOnUse">
<stop stop-color="#F2926F"/>
<stop offset="1" stop-color="#D45D61"/>
</linearGradient>
<linearGradient id="paint23_linear" x1="7246.54" y1="5772.55" x2="7327.25" y2="5763.21" gradientUnits="userSpaceOnUse">
<stop stop-color="#E9B883"/>
<stop offset="1" stop-color="#B78047"/>
</linearGradient>
<linearGradient id="paint24_linear" x1="315879" y1="260454" x2="337476" y2="107350" gradientUnits="userSpaceOnUse">
<stop stop-color="white" stop-opacity="0"/>
<stop offset="1" stop-color="white"/>
</linearGradient>
</defs>
</svg>
